<mxfile host="app.diagrams.net" agent="Mozilla/5.0 (Windows NT 10.0; Win64; x64) AppleWebKit/537.36 (KHTML, like Gecko) Chrome/129.0.0.0 Safari/537.36" version="24.7.17" pages="5">
  <diagram name="Class" id="TDK0GBvSfRPg_dON5NKm">
    <mxGraphModel grid="1" page="1" gridSize="10" guides="1" tooltips="1" connect="1" arrows="1" fold="1" pageScale="1" pageWidth="850" pageHeight="1100" math="0" shadow="0">
      <root>
        <mxCell id="0" />
        <mxCell id="1" parent="0" />
        <mxCell id="8DxKa7WhByMmZHTqV09v-3" value="&lt;b&gt;&lt;font color=&quot;#ff0000&quot;&gt;User&lt;/font&gt;&lt;/b&gt;" style="swimlane;fontStyle=0;childLayout=stackLayout;horizontal=1;startSize=30;horizontalStack=0;resizeParent=1;resizeParentMax=0;resizeLast=0;collapsible=1;marginBottom=0;whiteSpace=wrap;html=1;fontFamily=Times New Roman;" vertex="1" parent="1">
          <mxGeometry x="-180" y="340" width="150" height="220" as="geometry">
            <mxRectangle x="150" y="460" width="60" height="30" as="alternateBounds" />
          </mxGeometry>
        </mxCell>
        <mxCell id="8DxKa7WhByMmZHTqV09v-9" value="-&lt;b&gt;userID&lt;/b&gt;: String&lt;div&gt;-&lt;b&gt;userName&lt;/b&gt;: String&lt;/div&gt;&lt;div&gt;-&lt;b&gt;passWork&lt;/b&gt;: String&lt;/div&gt;&lt;div&gt;-&lt;b&gt;email&lt;/b&gt;: String&lt;/div&gt;&lt;div&gt;-&lt;b&gt;phone&lt;/b&gt;: String&lt;/div&gt;&lt;div&gt;-&lt;b&gt;role&lt;/b&gt;: String&lt;/div&gt;" style="rounded=0;whiteSpace=wrap;html=1;align=left;verticalAlign=top;fontFamily=Times New Roman;" vertex="1" parent="8DxKa7WhByMmZHTqV09v-3">
          <mxGeometry y="30" width="150" height="110" as="geometry" />
        </mxCell>
        <mxCell id="8DxKa7WhByMmZHTqV09v-45" value="&lt;strong&gt;#login()&lt;/strong&gt;: void&lt;div&gt;&lt;strong&gt;#logout()&lt;/strong&gt;: void&lt;/div&gt;&lt;div&gt;&lt;strong&gt;#updateProfile()&lt;/strong&gt;: void&lt;br&gt;&lt;div&gt;&lt;br&gt;&lt;div&gt;&amp;nbsp; &lt;br&gt;&lt;br&gt;&lt;/div&gt;&lt;/div&gt;&lt;/div&gt;" style="rounded=0;whiteSpace=wrap;html=1;align=left;verticalAlign=top;fontFamily=Times New Roman;" vertex="1" parent="8DxKa7WhByMmZHTqV09v-3">
          <mxGeometry y="140" width="150" height="80" as="geometry" />
        </mxCell>
        <mxCell id="8DxKa7WhByMmZHTqV09v-36" style="edgeStyle=orthogonalEdgeStyle;rounded=0;orthogonalLoop=1;jettySize=auto;html=1;exitX=0.5;exitY=0;exitDx=0;exitDy=0;entryX=0.5;entryY=1;entryDx=0;entryDy=0;endArrow=none;endFill=0;fontFamily=Times New Roman;" edge="1" parent="1" source="8DxKa7WhByMmZHTqV09v-10" target="8DxKa7WhByMmZHTqV09v-15">
          <mxGeometry relative="1" as="geometry" />
        </mxCell>
        <mxCell id="8DxKa7WhByMmZHTqV09v-10" value="&lt;b&gt;&lt;font color=&quot;#ff0000&quot;&gt;Product&lt;/font&gt;&lt;/b&gt;" style="swimlane;fontStyle=0;childLayout=stackLayout;horizontal=1;startSize=30;horizontalStack=0;resizeParent=1;resizeParentMax=0;resizeLast=0;collapsible=1;marginBottom=0;whiteSpace=wrap;html=1;fontFamily=Times New Roman;" vertex="1" parent="1">
          <mxGeometry x="380" y="610" width="160" height="260" as="geometry">
            <mxRectangle x="350" y="660" width="60" height="30" as="alternateBounds" />
          </mxGeometry>
        </mxCell>
        <mxCell id="8DxKa7WhByMmZHTqV09v-11" value="&lt;div style=&quot;&quot;&gt;&lt;span style=&quot;background-color: initial;&quot;&gt;-&lt;/span&gt;&lt;strong style=&quot;background-color: initial;&quot;&gt;productID&lt;/strong&gt;&lt;span style=&quot;background-color: initial;&quot;&gt;:&amp;nbsp;&lt;/span&gt;&lt;span style=&quot;background-color: initial;&quot;&gt;Integer&lt;/span&gt;&lt;/div&gt;&lt;div style=&quot;&quot;&gt;&lt;span style=&quot;background-color: initial;&quot;&gt;-&lt;/span&gt;&lt;strong style=&quot;background-color: initial;&quot;&gt;productName&lt;/strong&gt;&lt;span style=&quot;background-color: initial;&quot;&gt;: String&lt;/span&gt;&lt;/div&gt;&lt;div style=&quot;&quot;&gt;&lt;span style=&quot;background-color: initial;&quot;&gt;-&lt;/span&gt;&lt;strong style=&quot;background-color: initial;&quot;&gt;price&lt;/strong&gt;&lt;span style=&quot;background-color: initial;&quot;&gt;:&amp;nbsp;&lt;/span&gt;&lt;span style=&quot;background-color: initial;&quot;&gt;Integer&lt;/span&gt;&lt;/div&gt;&lt;div style=&quot;&quot;&gt;&lt;span style=&quot;background-color: initial;&quot;&gt;-&lt;b&gt;q&lt;/b&gt;&lt;/span&gt;&lt;strong style=&quot;background-color: initial;&quot;&gt;uantity&lt;/strong&gt;&lt;span style=&quot;background-color: initial;&quot;&gt;:&amp;nbsp;&lt;/span&gt;&lt;span style=&quot;background-color: initial;&quot;&gt;Integer&lt;/span&gt;&lt;/div&gt;&lt;div style=&quot;&quot;&gt;&lt;span style=&quot;background-color: initial;&quot;&gt;-&lt;/span&gt;&lt;strong style=&quot;background-color: initial;&quot;&gt;description&lt;/strong&gt;&lt;span style=&quot;background-color: initial;&quot;&gt;: String&lt;/span&gt;&lt;/div&gt;&lt;div style=&quot;&quot;&gt;&lt;span style=&quot;background-color: initial;&quot;&gt;-&lt;/span&gt;&lt;span style=&quot;background-color: initial;&quot;&gt;&lt;b&gt;discount ID&lt;/b&gt;: String&lt;/span&gt;&lt;/div&gt;&lt;div style=&quot;&quot;&gt;&lt;span style=&quot;background-color: initial;&quot;&gt;&lt;br&gt;&lt;/span&gt;&lt;/div&gt;&lt;div style=&quot;&quot;&gt;&lt;br&gt;&lt;/div&gt;" style="rounded=0;whiteSpace=wrap;html=1;align=left;verticalAlign=top;fontFamily=Times New Roman;" vertex="1" parent="8DxKa7WhByMmZHTqV09v-10">
          <mxGeometry y="30" width="160" height="130" as="geometry" />
        </mxCell>
        <mxCell id="8DxKa7WhByMmZHTqV09v-42" value="&lt;strong&gt;+addProduct()&lt;/strong&gt;: void&lt;br&gt;&lt;div&gt;&lt;strong style=&quot;background-color: initial;&quot;&gt;+removeProduct()&lt;/strong&gt;&lt;span style=&quot;background-color: initial;&quot;&gt;: void&lt;/span&gt;&amp;nbsp;&lt;/div&gt;&lt;div&gt;&lt;span style=&quot;background-color: initial;&quot;&gt;+&lt;/span&gt;&lt;strong style=&quot;background-color: initial;&quot;&gt;updateProduct()&lt;/strong&gt;&lt;span style=&quot;background-color: initial;&quot;&gt;: void&lt;/span&gt;&lt;/div&gt;&lt;div&gt;&lt;span style=&quot;background-color: initial;&quot;&gt;&lt;br&gt;&lt;/span&gt;&lt;/div&gt;" style="rounded=0;whiteSpace=wrap;html=1;align=left;verticalAlign=top;fontFamily=Times New Roman;" vertex="1" parent="8DxKa7WhByMmZHTqV09v-10">
          <mxGeometry y="160" width="160" height="100" as="geometry" />
        </mxCell>
        <mxCell id="8DxKa7WhByMmZHTqV09v-38" style="edgeStyle=orthogonalEdgeStyle;rounded=0;orthogonalLoop=1;jettySize=auto;html=1;exitX=1;exitY=0.5;exitDx=0;exitDy=0;endArrow=none;endFill=0;fontFamily=Times New Roman;" edge="1" parent="1" source="8DxKa7WhByMmZHTqV09v-15" target="8DxKa7WhByMmZHTqV09v-20">
          <mxGeometry relative="1" as="geometry" />
        </mxCell>
        <mxCell id="8DxKa7WhByMmZHTqV09v-15" value="&lt;code&gt;&lt;b&gt;&lt;font color=&quot;#ff0000&quot;&gt;Order&lt;/font&gt;&lt;/b&gt;&lt;/code&gt;" style="swimlane;fontStyle=0;childLayout=stackLayout;horizontal=1;startSize=30;horizontalStack=0;resizeParent=1;resizeParentMax=0;resizeLast=0;collapsible=1;marginBottom=0;whiteSpace=wrap;html=1;fontFamily=Times New Roman;" vertex="1" parent="1">
          <mxGeometry x="380" y="330" width="160" height="220" as="geometry">
            <mxRectangle x="350" y="540" width="60" height="30" as="alternateBounds" />
          </mxGeometry>
        </mxCell>
        <mxCell id="8DxKa7WhByMmZHTqV09v-16" value="-&lt;strong&gt;orderID&lt;/strong&gt;: Integer&lt;div&gt;-&lt;b&gt;&lt;span style=&quot;background-color: initial;&quot;&gt;order&lt;/span&gt;Time&lt;/b&gt;&lt;span style=&quot;background-color: initial;&quot;&gt;:&amp;nbsp;&lt;/span&gt;&lt;span style=&quot;background-color: initial;&quot;&gt;DateTime&lt;/span&gt;&lt;/div&gt;&lt;div&gt;&lt;span style=&quot;background-color: initial;&quot;&gt;-&lt;/span&gt;&lt;strong style=&quot;background-color: initial;&quot;&gt;status&lt;/strong&gt;&lt;span style=&quot;background-color: initial;&quot;&gt;: String&lt;/span&gt;&lt;br&gt;&lt;/div&gt;&lt;div&gt;&lt;span style=&quot;background-color: initial;&quot;&gt;-&lt;/span&gt;&lt;strong style=&quot;background-color: initial;&quot;&gt;totalAmount&lt;/strong&gt;&lt;span style=&quot;background-color: initial;&quot;&gt;: Integer&lt;/span&gt;&lt;/div&gt;&lt;div&gt;&lt;div&gt;&lt;span style=&quot;background-color: initial;&quot;&gt;-&lt;b&gt;address&lt;/b&gt;: String&lt;/span&gt;&lt;/div&gt;&lt;/div&gt;&lt;div&gt;&lt;span style=&quot;background-color: initial;&quot;&gt;-&lt;b&gt;products&lt;/b&gt;: List&amp;lt;Product&amp;gt;&lt;/span&gt;&lt;/div&gt;&lt;div&gt;&lt;span style=&quot;background-color: initial;&quot;&gt;-&lt;b&gt;Customer&lt;/b&gt;: customerID&lt;/span&gt;&lt;/div&gt;&lt;div&gt;&lt;br&gt;&lt;/div&gt;&lt;div&gt;&lt;span style=&quot;background-color: initial;&quot;&gt;&lt;br&gt;&lt;/span&gt;&lt;/div&gt;" style="rounded=0;whiteSpace=wrap;html=1;align=left;verticalAlign=top;fontFamily=Times New Roman;" vertex="1" parent="8DxKa7WhByMmZHTqV09v-15">
          <mxGeometry y="30" width="160" height="120" as="geometry" />
        </mxCell>
        <mxCell id="8DxKa7WhByMmZHTqV09v-40" value="&lt;strong&gt;+createOrder()&lt;/strong&gt;:&amp;nbsp;void &lt;div&gt;&lt;span style=&quot;background-color: initial;&quot;&gt;+&lt;/span&gt;&lt;strong style=&quot;background-color: initial;&quot;&gt;cancelOrder()&lt;/strong&gt;&lt;span style=&quot;background-color: initial;&quot;&gt;: void&lt;/span&gt;&lt;/div&gt;&lt;div&gt;&lt;span style=&quot;background-color: initial;&quot;&gt;+&lt;/span&gt;&lt;strong style=&quot;background-color: initial;&quot;&gt;updateOrder()&lt;/strong&gt;&lt;span style=&quot;background-color: initial;&quot;&gt;: void&lt;/span&gt;&lt;/div&gt;&lt;div&gt;&lt;strong style=&quot;background-color: initial;&quot;&gt;+viewOrderDetails()&lt;/strong&gt;&lt;span style=&quot;background-color: initial;&quot;&gt;: void&lt;/span&gt;&lt;/div&gt;" style="rounded=0;whiteSpace=wrap;html=1;verticalAlign=top;align=left;fontFamily=Times New Roman;" vertex="1" parent="8DxKa7WhByMmZHTqV09v-15">
          <mxGeometry y="150" width="160" height="70" as="geometry" />
        </mxCell>
        <mxCell id="8DxKa7WhByMmZHTqV09v-20" value="&lt;b&gt;&lt;font color=&quot;#ff0000&quot;&gt;Invoice&lt;/font&gt;&lt;/b&gt;" style="swimlane;fontStyle=0;childLayout=stackLayout;horizontal=1;startSize=30;horizontalStack=0;resizeParent=1;resizeParentMax=0;resizeLast=0;collapsible=1;marginBottom=0;whiteSpace=wrap;html=1;fontFamily=Times New Roman;" vertex="1" parent="1">
          <mxGeometry x="610" y="360" width="160" height="160" as="geometry">
            <mxRectangle x="480" y="540" width="60" height="30" as="alternateBounds" />
          </mxGeometry>
        </mxCell>
        <mxCell id="8DxKa7WhByMmZHTqV09v-21" value="&lt;strong&gt;-invoiceID&lt;/strong&gt;: Integer&lt;div&gt;-&lt;strong style=&quot;background-color: initial;&quot;&gt;invoiceTime&lt;/strong&gt;&lt;span style=&quot;background-color: initial;&quot;&gt;:&amp;nbsp;&lt;/span&gt;&lt;span style=&quot;background-color: initial;&quot;&gt;DateTime&lt;/span&gt;&lt;/div&gt;&lt;div&gt;&lt;span style=&quot;background-color: initial;&quot;&gt;-&lt;/span&gt;&lt;strong style=&quot;background-color: initial;&quot;&gt;totalAmount&lt;/strong&gt;&lt;span style=&quot;background-color: initial;&quot;&gt;: Integer&lt;/span&gt;&lt;/div&gt;&lt;div&gt;&lt;span style=&quot;background-color: initial;&quot;&gt;-&lt;/span&gt;&lt;strong style=&quot;background-color: initial;&quot;&gt;paymentStatus&lt;/strong&gt;&lt;span style=&quot;background-color: initial;&quot;&gt;: String&lt;/span&gt;&lt;/div&gt;" style="rounded=0;whiteSpace=wrap;html=1;align=left;verticalAlign=top;fontFamily=Times New Roman;" vertex="1" parent="8DxKa7WhByMmZHTqV09v-20">
          <mxGeometry y="30" width="160" height="90" as="geometry" />
        </mxCell>
        <mxCell id="8DxKa7WhByMmZHTqV09v-41" value="+&lt;strong&gt;createInvoice()&lt;/strong&gt;: void&lt;div&gt;&lt;span style=&quot;background-color: initial;&quot;&gt;+&lt;/span&gt;&lt;strong style=&quot;background-color: initial;&quot;&gt;sendInvoice()&lt;/strong&gt;&lt;span style=&quot;background-color: initial;&quot;&gt;: void&lt;/span&gt;&lt;/div&gt;" style="rounded=0;whiteSpace=wrap;html=1;align=left;verticalAlign=top;fontFamily=Times New Roman;" vertex="1" parent="8DxKa7WhByMmZHTqV09v-20">
          <mxGeometry y="120" width="160" height="40" as="geometry" />
        </mxCell>
        <mxCell id="8DxKa7WhByMmZHTqV09v-39" style="edgeStyle=orthogonalEdgeStyle;rounded=0;orthogonalLoop=1;jettySize=auto;html=1;exitX=0.5;exitY=0;exitDx=0;exitDy=0;endArrow=none;endFill=0;fontFamily=Times New Roman;" edge="1" parent="1" source="8DxKa7WhByMmZHTqV09v-25" target="8DxKa7WhByMmZHTqV09v-10">
          <mxGeometry relative="1" as="geometry" />
        </mxCell>
        <mxCell id="8DxKa7WhByMmZHTqV09v-25" value="&lt;span style=&quot;text-align: left;&quot;&gt;&lt;b&gt;&lt;font color=&quot;#ff0000&quot;&gt;Warehouse&lt;/font&gt;&lt;/b&gt;&lt;/span&gt;" style="swimlane;fontStyle=0;childLayout=stackLayout;horizontal=1;startSize=30;horizontalStack=0;resizeParent=1;resizeParentMax=0;resizeLast=0;collapsible=1;marginBottom=0;whiteSpace=wrap;html=1;fontFamily=Times New Roman;" vertex="1" parent="1">
          <mxGeometry x="365" y="930" width="190" height="170" as="geometry">
            <mxRectangle x="350" y="830" width="60" height="30" as="alternateBounds" />
          </mxGeometry>
        </mxCell>
        <mxCell id="8DxKa7WhByMmZHTqV09v-26" value="-&lt;b&gt;warehouseID&lt;/b&gt;: Integer&lt;div&gt;-&lt;b&gt;products&lt;/b&gt;: List&amp;lt;Product&amp;gt;&lt;/div&gt;&lt;div&gt;-&lt;b&gt;location&lt;/b&gt;: String&lt;/div&gt;&lt;div&gt;&lt;br&gt;&lt;/div&gt;" style="rounded=0;whiteSpace=wrap;html=1;align=left;verticalAlign=top;fontFamily=Times New Roman;" vertex="1" parent="8DxKa7WhByMmZHTqV09v-25">
          <mxGeometry y="30" width="190" height="60" as="geometry" />
        </mxCell>
        <mxCell id="8DxKa7WhByMmZHTqV09v-44" value="&lt;b&gt;+findProduct(): &lt;/b&gt;Product&lt;div&gt;&lt;b&gt;+addWarehouse(): &lt;/b&gt;void&lt;/div&gt;&lt;div&gt;&lt;b&gt;+updateWarehouse(): &lt;/b&gt;void&lt;/div&gt;&lt;div&gt;&lt;b&gt;+deleteWarehouse(): &lt;/b&gt;void&lt;/div&gt;&lt;div&gt;+&lt;b&gt;showProduct()&lt;/b&gt;: void&lt;br&gt;&lt;/div&gt;" style="rounded=0;whiteSpace=wrap;html=1;align=left;verticalAlign=top;fontFamily=Times New Roman;" vertex="1" parent="8DxKa7WhByMmZHTqV09v-25">
          <mxGeometry y="90" width="190" height="80" as="geometry" />
        </mxCell>
        <mxCell id="8DxKa7WhByMmZHTqV09v-30" value="&lt;font face=&quot;monospace&quot; color=&quot;#ff0000&quot;&gt;&lt;b&gt;Discount&amp;nbsp;&lt;/b&gt;&lt;/font&gt;" style="swimlane;fontStyle=0;childLayout=stackLayout;horizontal=1;startSize=30;horizontalStack=0;resizeParent=1;resizeParentMax=0;resizeLast=0;collapsible=1;marginBottom=0;whiteSpace=wrap;html=1;fontFamily=Times New Roman;" vertex="1" parent="1">
          <mxGeometry x="100" y="640" width="180" height="220" as="geometry">
            <mxRectangle x="640" y="720" width="60" height="30" as="alternateBounds" />
          </mxGeometry>
        </mxCell>
        <mxCell id="8DxKa7WhByMmZHTqV09v-31" value="-&lt;b&gt;discount&lt;/b&gt;&lt;strong&gt;ID: &lt;/strong&gt;Integer&lt;div&gt;-&lt;strong style=&quot;background-color: initial;&quot;&gt;discount&lt;/strong&gt;&lt;span style=&quot;background-color: initial;&quot;&gt;: Float&lt;/span&gt;&lt;/div&gt;&lt;div&gt;&lt;span style=&quot;background-color: initial;&quot;&gt;-&lt;b&gt;products:&lt;/b&gt; List&amp;lt;Product&amp;gt;&lt;/span&gt;&lt;/div&gt;&lt;div&gt;&lt;span style=&quot;background-color: initial;&quot;&gt;-&lt;/span&gt;&lt;b style=&quot;background-color: initial;&quot;&gt;quantity&lt;/b&gt;&lt;span style=&quot;background-color: initial;&quot;&gt;: Interger&lt;/span&gt;&lt;/div&gt;&lt;div&gt;&lt;span style=&quot;background-color: initial;&quot;&gt;-&lt;/span&gt;&lt;strong style=&quot;background-color: initial;&quot;&gt;startTime&lt;/strong&gt;&lt;span style=&quot;background-color: initial;&quot;&gt;:&amp;nbsp;&lt;/span&gt;&lt;span style=&quot;background-color: initial;&quot;&gt;DateTime&lt;/span&gt;&lt;/div&gt;&lt;div&gt;&lt;span style=&quot;background-color: initial;&quot;&gt;-&lt;/span&gt;&lt;strong style=&quot;background-color: initial;&quot;&gt;endTime&lt;/strong&gt;&lt;span style=&quot;background-color: initial;&quot;&gt;:&amp;nbsp;&lt;/span&gt;&lt;span style=&quot;background-color: initial;&quot;&gt;DateTime&lt;/span&gt;&lt;/div&gt;" style="rounded=0;whiteSpace=wrap;html=1;align=left;verticalAlign=top;fontFamily=Times New Roman;" vertex="1" parent="8DxKa7WhByMmZHTqV09v-30">
          <mxGeometry y="30" width="180" height="100" as="geometry" />
        </mxCell>
        <mxCell id="8DxKa7WhByMmZHTqV09v-43" value="+&lt;b&gt;createDiscount ()&lt;/b&gt;: void&lt;div&gt;+&lt;b&gt;updateDiscount ()&lt;/b&gt;: void&lt;/div&gt;&lt;div&gt;+&lt;b&gt;deleteDiscount &lt;/b&gt;(): void&lt;/div&gt;&lt;div&gt;&lt;div&gt;&lt;strong style=&quot;background-color: initial;&quot;&gt;+viewDiscountDetails()&lt;/strong&gt;&lt;span style=&quot;background-color: initial;&quot;&gt;: void&lt;/span&gt;&lt;/div&gt;&lt;/div&gt;&lt;div&gt;&lt;strong style=&quot;background-color: initial;&quot;&gt;+applyDiscount()&lt;/strong&gt;&lt;span style=&quot;background-color: initial;&quot;&gt;: void&lt;/span&gt;&lt;/div&gt;&lt;div&gt;&lt;br&gt;&lt;/div&gt;" style="rounded=0;whiteSpace=wrap;html=1;align=left;verticalAlign=top;fontFamily=Times New Roman;" vertex="1" parent="8DxKa7WhByMmZHTqV09v-30">
          <mxGeometry y="130" width="180" height="90" as="geometry" />
        </mxCell>
        <mxCell id="8DxKa7WhByMmZHTqV09v-46" value="&lt;span style=&quot;text-align: left;&quot;&gt;&lt;b&gt;&lt;font color=&quot;#ff0000&quot;&gt;IEProduct&lt;/font&gt;&lt;/b&gt;&lt;/span&gt;" style="swimlane;fontStyle=0;childLayout=stackLayout;horizontal=1;startSize=30;horizontalStack=0;resizeParent=1;resizeParentMax=0;resizeLast=0;collapsible=1;marginBottom=0;whiteSpace=wrap;html=1;fontFamily=Times New Roman;" vertex="1" parent="1">
          <mxGeometry x="740" y="810" width="180" height="180" as="geometry">
            <mxRectangle x="350" y="830" width="60" height="30" as="alternateBounds" />
          </mxGeometry>
        </mxCell>
        <mxCell id="8DxKa7WhByMmZHTqV09v-47" value="-&lt;b&gt;ieproductID&lt;/b&gt;: Integer&lt;div&gt;-&lt;b&gt;type&lt;/b&gt;: String&lt;br&gt;&lt;div&gt;-&lt;b&gt;products&lt;/b&gt;: List&amp;lt;Product&amp;gt;&lt;/div&gt;&lt;div&gt;-&lt;b&gt;ieTime&lt;/b&gt;: DateTime&amp;nbsp;&lt;div&gt;&lt;br&gt;&lt;/div&gt;&lt;div&gt;&lt;br&gt;&lt;/div&gt;&lt;/div&gt;&lt;/div&gt;" style="rounded=0;whiteSpace=wrap;html=1;align=left;verticalAlign=top;fontFamily=Times New Roman;" vertex="1" parent="8DxKa7WhByMmZHTqV09v-46">
          <mxGeometry y="30" width="180" height="70" as="geometry" />
        </mxCell>
        <mxCell id="8DxKa7WhByMmZHTqV09v-48" value="&lt;b&gt;+createIEP(): &lt;/b&gt;void&lt;div&gt;&lt;b&gt;+updateIEP(): &lt;/b&gt;void&lt;/div&gt;&lt;div&gt;&lt;b&gt;+deleteIEP(): &lt;/b&gt;void&lt;/div&gt;" style="rounded=0;whiteSpace=wrap;html=1;align=left;verticalAlign=top;fontFamily=Times New Roman;" vertex="1" parent="8DxKa7WhByMmZHTqV09v-46">
          <mxGeometry y="100" width="180" height="80" as="geometry" />
        </mxCell>
        <mxCell id="8DxKa7WhByMmZHTqV09v-99" style="edgeStyle=orthogonalEdgeStyle;rounded=0;orthogonalLoop=1;jettySize=auto;html=1;exitX=0.5;exitY=1;exitDx=0;exitDy=0;entryX=0;entryY=0.75;entryDx=0;entryDy=0;fontFamily=Times New Roman;fontSize=12;fontColor=default;fontStyle=0;endArrow=block;endFill=0;" edge="1" parent="1" source="8DxKa7WhByMmZHTqV09v-53" target="8DxKa7WhByMmZHTqV09v-9">
          <mxGeometry relative="1" as="geometry" />
        </mxCell>
        <mxCell id="8DxKa7WhByMmZHTqV09v-53" value="&lt;b&gt;&lt;font color=&quot;#ff0000&quot;&gt;SalesStaff&lt;/font&gt;&lt;/b&gt;" style="swimlane;fontStyle=0;childLayout=stackLayout;horizontal=1;startSize=30;horizontalStack=0;resizeParent=1;resizeParentMax=0;resizeLast=0;collapsible=1;marginBottom=0;whiteSpace=wrap;html=1;fontFamily=Times New Roman;" vertex="1" parent="1">
          <mxGeometry x="-650" y="250" width="190" height="70" as="geometry">
            <mxRectangle x="150" y="460" width="60" height="30" as="alternateBounds" />
          </mxGeometry>
        </mxCell>
        <mxCell id="8DxKa7WhByMmZHTqV09v-54" value="-&lt;b&gt;salesStaffID:&lt;/b&gt; String&lt;div&gt;&lt;span style=&quot;background-color: initial;&quot;&gt;-&lt;/span&gt;&lt;b style=&quot;background-color: initial;&quot;&gt;permissions&lt;/b&gt;&lt;span style=&quot;background-color: initial;&quot;&gt;: List&amp;lt;Permission&amp;gt;&lt;/span&gt;&lt;/div&gt;" style="rounded=0;whiteSpace=wrap;html=1;align=left;verticalAlign=top;fontFamily=Times New Roman;" vertex="1" parent="8DxKa7WhByMmZHTqV09v-53">
          <mxGeometry y="30" width="190" height="40" as="geometry" />
        </mxCell>
        <mxCell id="8DxKa7WhByMmZHTqV09v-87" style="edgeStyle=orthogonalEdgeStyle;rounded=0;orthogonalLoop=1;jettySize=auto;html=1;exitX=0.5;exitY=1;exitDx=0;exitDy=0;entryX=0;entryY=0.75;entryDx=0;entryDy=0;fontFamily=Times New Roman;fontSize=12;fontColor=default;fontStyle=0;endArrow=block;endFill=0;" edge="1" parent="1" source="8DxKa7WhByMmZHTqV09v-56" target="8DxKa7WhByMmZHTqV09v-9">
          <mxGeometry relative="1" as="geometry" />
        </mxCell>
        <mxCell id="8DxKa7WhByMmZHTqV09v-107" style="edgeStyle=orthogonalEdgeStyle;rounded=0;orthogonalLoop=1;jettySize=auto;html=1;exitX=1;exitY=0.25;exitDx=0;exitDy=0;fontFamily=Helvetica;fontSize=12;fontColor=default;fontStyle=0;endArrow=none;endFill=0;" edge="1" parent="1" source="8DxKa7WhByMmZHTqV09v-56">
          <mxGeometry relative="1" as="geometry">
            <mxPoint x="-10" y="237.31578947368428" as="targetPoint" />
          </mxGeometry>
        </mxCell>
        <mxCell id="8DxKa7WhByMmZHTqV09v-56" value="&lt;b&gt;&lt;font color=&quot;#ff0000&quot;&gt;Admin&lt;/font&gt;&lt;/b&gt;" style="swimlane;fontStyle=0;childLayout=stackLayout;horizontal=1;startSize=30;horizontalStack=0;resizeParent=1;resizeParentMax=0;resizeLast=0;collapsible=1;marginBottom=0;whiteSpace=wrap;html=1;fontFamily=Times New Roman;" vertex="1" parent="1">
          <mxGeometry x="-360" y="210" width="170" height="110" as="geometry">
            <mxRectangle x="150" y="460" width="60" height="30" as="alternateBounds" />
          </mxGeometry>
        </mxCell>
        <mxCell id="8DxKa7WhByMmZHTqV09v-57" value="-&lt;b&gt;adminID: &lt;/b&gt;String&lt;div&gt;-&lt;b&gt;userRoles&lt;/b&gt;: List&amp;lt;userRole&amp;gt;&lt;/div&gt;" style="rounded=0;whiteSpace=wrap;html=1;align=left;verticalAlign=top;fontFamily=Times New Roman;" vertex="1" parent="8DxKa7WhByMmZHTqV09v-56">
          <mxGeometry y="30" width="170" height="50" as="geometry" />
        </mxCell>
        <mxCell id="8DxKa7WhByMmZHTqV09v-96" value="-&lt;b&gt;showUserRoles():&lt;/b&gt; void&lt;div&gt;&lt;br&gt;&lt;/div&gt;" style="rounded=0;whiteSpace=wrap;html=1;align=left;verticalAlign=top;fontFamily=Times New Roman;" vertex="1" parent="8DxKa7WhByMmZHTqV09v-56">
          <mxGeometry y="80" width="170" height="30" as="geometry" />
        </mxCell>
        <mxCell id="8DxKa7WhByMmZHTqV09v-78" style="edgeStyle=orthogonalEdgeStyle;rounded=0;orthogonalLoop=1;jettySize=auto;html=1;exitX=0.5;exitY=0;exitDx=0;exitDy=0;entryX=0;entryY=0.75;entryDx=0;entryDy=0;fontFamily=Times New Roman;fontSize=12;fontColor=default;fontStyle=0;endArrow=blockThin;endFill=0;" edge="1" parent="1" source="8DxKa7WhByMmZHTqV09v-59" target="8DxKa7WhByMmZHTqV09v-9">
          <mxGeometry relative="1" as="geometry" />
        </mxCell>
        <mxCell id="8DxKa7WhByMmZHTqV09v-59" value="&lt;b&gt;&lt;font color=&quot;#ff0000&quot;&gt;Accountant&lt;/font&gt;&lt;/b&gt;" style="swimlane;fontStyle=0;childLayout=stackLayout;horizontal=1;startSize=30;horizontalStack=0;resizeParent=1;resizeParentMax=0;resizeLast=0;collapsible=1;marginBottom=0;whiteSpace=wrap;html=1;fontFamily=Times New Roman;" vertex="1" parent="1">
          <mxGeometry x="-490" y="550" width="170" height="80" as="geometry">
            <mxRectangle x="150" y="460" width="60" height="30" as="alternateBounds" />
          </mxGeometry>
        </mxCell>
        <mxCell id="8DxKa7WhByMmZHTqV09v-60" value="-&lt;b&gt;accountantID&lt;/b&gt;: String&lt;div&gt;-&lt;b&gt;permissions&lt;/b&gt;: List&amp;lt;Permission&amp;gt;&lt;br&gt;&lt;/div&gt;" style="rounded=0;whiteSpace=wrap;html=1;align=left;verticalAlign=top;fontFamily=Times New Roman;" vertex="1" parent="8DxKa7WhByMmZHTqV09v-59">
          <mxGeometry y="30" width="170" height="50" as="geometry" />
        </mxCell>
        <mxCell id="8DxKa7WhByMmZHTqV09v-79" style="edgeStyle=orthogonalEdgeStyle;rounded=0;orthogonalLoop=1;jettySize=auto;html=1;exitX=0.5;exitY=0;exitDx=0;exitDy=0;entryX=0;entryY=0.75;entryDx=0;entryDy=0;fontFamily=Times New Roman;fontSize=12;fontColor=default;fontStyle=0;endArrow=block;endFill=0;" edge="1" parent="1" source="8DxKa7WhByMmZHTqV09v-62" target="8DxKa7WhByMmZHTqV09v-9">
          <mxGeometry relative="1" as="geometry">
            <Array as="points">
              <mxPoint x="-675" y="452" />
            </Array>
          </mxGeometry>
        </mxCell>
        <mxCell id="8DxKa7WhByMmZHTqV09v-62" value="&lt;b&gt;&lt;font color=&quot;#ff0000&quot;&gt;WareHouseStaff&lt;/font&gt;&lt;/b&gt;" style="swimlane;fontStyle=0;childLayout=stackLayout;horizontal=1;startSize=30;horizontalStack=0;resizeParent=1;resizeParentMax=0;resizeLast=0;collapsible=1;marginBottom=0;whiteSpace=wrap;html=1;fontFamily=Times New Roman;" vertex="1" parent="1">
          <mxGeometry x="-760" y="550" width="170" height="80" as="geometry">
            <mxRectangle x="150" y="460" width="60" height="30" as="alternateBounds" />
          </mxGeometry>
        </mxCell>
        <mxCell id="8DxKa7WhByMmZHTqV09v-63" value="-&lt;b&gt;wareHouseStaffID&lt;/b&gt;: String&lt;div&gt;-&lt;b&gt;permissions&lt;/b&gt;: List&amp;lt;Permission&amp;gt;&lt;br&gt;&lt;/div&gt;" style="rounded=0;whiteSpace=wrap;html=1;align=left;verticalAlign=top;fontFamily=Times New Roman;" vertex="1" parent="8DxKa7WhByMmZHTqV09v-62">
          <mxGeometry y="30" width="170" height="50" as="geometry" />
        </mxCell>
        <mxCell id="8DxKa7WhByMmZHTqV09v-81" value="&lt;b&gt;&lt;font color=&quot;#ff0000&quot;&gt;UserRole&lt;/font&gt;&lt;/b&gt;" style="swimlane;fontStyle=0;childLayout=stackLayout;horizontal=1;startSize=30;horizontalStack=0;resizeParent=1;resizeParentMax=0;resizeLast=0;collapsible=1;marginBottom=0;whiteSpace=wrap;html=1;fontFamily=Times New Roman;" vertex="1" parent="1">
          <mxGeometry x="-10" y="140" width="180" height="180" as="geometry">
            <mxRectangle x="150" y="460" width="60" height="30" as="alternateBounds" />
          </mxGeometry>
        </mxCell>
        <mxCell id="8DxKa7WhByMmZHTqV09v-82" value="-&lt;span style=&quot;text-align: center;&quot;&gt;&lt;b&gt;userRoleID&lt;/b&gt;&lt;/span&gt;: String&lt;div&gt;-&lt;b&gt;permissions&lt;/b&gt;: List&amp;lt;Permission&amp;gt;&lt;/div&gt;" style="rounded=0;whiteSpace=wrap;html=1;align=left;verticalAlign=top;fontFamily=Times New Roman;" vertex="1" parent="8DxKa7WhByMmZHTqV09v-81">
          <mxGeometry y="30" width="180" height="40" as="geometry" />
        </mxCell>
        <mxCell id="8DxKa7WhByMmZHTqV09v-83" value="&lt;div&gt;&lt;div&gt;&lt;div&gt;&lt;b&gt;-createUserRole(): &lt;/b&gt;void&lt;/div&gt;&lt;div&gt;&lt;b&gt;-updateUserRole(): &lt;/b&gt;void&lt;/div&gt;&lt;div&gt;&lt;b&gt;-deleteUserRole(): &lt;/b&gt;void&lt;/div&gt;&lt;div&gt;&lt;b&gt;-addPermission(): &lt;/b&gt;void&lt;/div&gt;&lt;/div&gt;&lt;/div&gt;&lt;div&gt;&lt;b&gt;-editPermission(): &lt;/b&gt;void&lt;/div&gt;&lt;div&gt;&lt;b&gt;-deletePermission(): &lt;/b&gt;void&lt;/div&gt;&lt;div&gt;+&lt;b&gt;showListPermission()&lt;/b&gt;: void&lt;/div&gt;" style="rounded=0;whiteSpace=wrap;html=1;align=left;verticalAlign=top;fontFamily=Times New Roman;" vertex="1" parent="8DxKa7WhByMmZHTqV09v-81">
          <mxGeometry y="70" width="180" height="110" as="geometry" />
        </mxCell>
        <mxCell id="8DxKa7WhByMmZHTqV09v-93" style="edgeStyle=orthogonalEdgeStyle;rounded=0;orthogonalLoop=1;jettySize=auto;html=1;exitX=0;exitY=0.5;exitDx=0;exitDy=0;entryX=1.011;entryY=0.698;entryDx=0;entryDy=0;entryPerimeter=0;fontFamily=Times New Roman;fontSize=12;fontColor=default;fontStyle=0;endArrow=none;endFill=0;" edge="1" parent="1" source="8DxKa7WhByMmZHTqV09v-10" target="8DxKa7WhByMmZHTqV09v-31">
          <mxGeometry relative="1" as="geometry" />
        </mxCell>
        <mxCell id="8DxKa7WhByMmZHTqV09v-108" value="1" style="text;html=1;align=center;verticalAlign=middle;resizable=0;points=[];autosize=1;strokeColor=none;fillColor=none;fontFamily=Helvetica;fontSize=12;fontColor=default;fontStyle=0;" vertex="1" parent="1">
          <mxGeometry x="-555" y="318" width="30" height="30" as="geometry" />
        </mxCell>
        <mxCell id="8DxKa7WhByMmZHTqV09v-109" value="1" style="text;html=1;align=center;verticalAlign=middle;resizable=0;points=[];autosize=1;strokeColor=none;fillColor=none;fontFamily=Helvetica;fontSize=12;fontColor=default;fontStyle=0;" vertex="1" parent="1">
          <mxGeometry x="-675" y="518" width="30" height="30" as="geometry" />
        </mxCell>
        <mxCell id="8DxKa7WhByMmZHTqV09v-110" value="1" style="text;html=1;align=center;verticalAlign=middle;resizable=0;points=[];autosize=1;strokeColor=none;fillColor=none;fontFamily=Helvetica;fontSize=12;fontColor=default;fontStyle=0;" vertex="1" parent="1">
          <mxGeometry x="-400" y="520" width="30" height="30" as="geometry" />
        </mxCell>
        <mxCell id="8DxKa7WhByMmZHTqV09v-111" value="1" style="text;html=1;align=center;verticalAlign=middle;resizable=0;points=[];autosize=1;strokeColor=none;fillColor=none;fontFamily=Helvetica;fontSize=12;fontColor=default;fontStyle=0;" vertex="1" parent="1">
          <mxGeometry x="-275" y="318" width="30" height="30" as="geometry" />
        </mxCell>
        <mxCell id="8DxKa7WhByMmZHTqV09v-112" value="1" style="text;html=1;align=center;verticalAlign=middle;resizable=0;points=[];autosize=1;strokeColor=none;fillColor=none;fontFamily=Helvetica;fontSize=12;fontColor=default;fontStyle=0;" vertex="1" parent="1">
          <mxGeometry x="-210" y="418" width="30" height="30" as="geometry" />
        </mxCell>
        <mxCell id="8DxKa7WhByMmZHTqV09v-115" value="1" style="text;html=1;align=center;verticalAlign=middle;resizable=0;points=[];autosize=1;strokeColor=none;fillColor=none;fontFamily=Helvetica;fontSize=12;fontColor=default;fontStyle=0;" vertex="1" parent="1">
          <mxGeometry x="-190" y="210" width="30" height="30" as="geometry" />
        </mxCell>
        <mxCell id="8DxKa7WhByMmZHTqV09v-116" value="N" style="text;html=1;align=center;verticalAlign=middle;resizable=0;points=[];autosize=1;strokeColor=none;fillColor=none;fontFamily=Helvetica;fontSize=12;fontColor=default;fontStyle=0;" vertex="1" parent="1">
          <mxGeometry x="-40" y="210" width="30" height="30" as="geometry" />
        </mxCell>
        <mxCell id="8DxKa7WhByMmZHTqV09v-119" value="N" style="text;html=1;align=center;verticalAlign=middle;resizable=0;points=[];autosize=1;strokeColor=none;fillColor=none;fontFamily=Helvetica;fontSize=12;fontColor=default;fontStyle=0;" vertex="1" parent="1">
          <mxGeometry x="460" y="548" width="30" height="30" as="geometry" />
        </mxCell>
        <mxCell id="8DxKa7WhByMmZHTqV09v-120" value="M" style="text;html=1;align=center;verticalAlign=middle;resizable=0;points=[];autosize=1;strokeColor=none;fillColor=none;fontFamily=Helvetica;fontSize=12;fontColor=default;fontStyle=0;" vertex="1" parent="1">
          <mxGeometry x="430" y="580" width="30" height="30" as="geometry" />
        </mxCell>
        <mxCell id="8DxKa7WhByMmZHTqV09v-121" value="N" style="text;html=1;align=center;verticalAlign=middle;resizable=0;points=[];autosize=1;strokeColor=none;fillColor=none;fontFamily=Helvetica;fontSize=12;fontColor=default;fontStyle=0;" vertex="1" parent="1">
          <mxGeometry x="540" y="408" width="30" height="30" as="geometry" />
        </mxCell>
        <mxCell id="8DxKa7WhByMmZHTqV09v-122" value="1" style="text;html=1;align=center;verticalAlign=middle;resizable=0;points=[];autosize=1;strokeColor=none;fillColor=none;fontFamily=Helvetica;fontSize=12;fontColor=default;fontStyle=0;" vertex="1" parent="1">
          <mxGeometry x="580" y="438" width="30" height="30" as="geometry" />
        </mxCell>
        <mxCell id="8DxKa7WhByMmZHTqV09v-123" value="1" style="text;html=1;align=center;verticalAlign=middle;resizable=0;points=[];autosize=1;strokeColor=none;fillColor=none;fontFamily=Helvetica;fontSize=12;fontColor=default;fontStyle=0;" vertex="1" parent="1">
          <mxGeometry x="270" y="708" width="30" height="30" as="geometry" />
        </mxCell>
        <mxCell id="8DxKa7WhByMmZHTqV09v-124" value="N" style="text;html=1;align=center;verticalAlign=middle;resizable=0;points=[];autosize=1;strokeColor=none;fillColor=none;fontFamily=Helvetica;fontSize=12;fontColor=default;fontStyle=0;" vertex="1" parent="1">
          <mxGeometry x="350" y="738" width="30" height="30" as="geometry" />
        </mxCell>
        <mxCell id="8DxKa7WhByMmZHTqV09v-125" value="N" style="text;html=1;align=center;verticalAlign=middle;resizable=0;points=[];autosize=1;strokeColor=none;fillColor=none;fontFamily=Helvetica;fontSize=12;fontColor=default;fontStyle=0;" vertex="1" parent="1">
          <mxGeometry x="460" y="870" width="30" height="30" as="geometry" />
        </mxCell>
        <mxCell id="8DxKa7WhByMmZHTqV09v-126" value="1" style="text;html=1;align=center;verticalAlign=middle;resizable=0;points=[];autosize=1;strokeColor=none;fillColor=none;fontFamily=Helvetica;fontSize=12;fontColor=default;fontStyle=0;" vertex="1" parent="1">
          <mxGeometry x="430" y="900" width="30" height="30" as="geometry" />
        </mxCell>
        <mxCell id="8DxKa7WhByMmZHTqV09v-128" value="N" style="text;html=1;align=center;verticalAlign=middle;resizable=0;points=[];autosize=1;strokeColor=none;fillColor=none;fontFamily=Helvetica;fontSize=12;fontColor=default;fontStyle=0;" vertex="1" parent="1">
          <mxGeometry x="710" y="970" width="30" height="30" as="geometry" />
        </mxCell>
        <mxCell id="8DxKa7WhByMmZHTqV09v-129" value="1" style="text;html=1;align=center;verticalAlign=middle;resizable=0;points=[];autosize=1;strokeColor=none;fillColor=none;fontFamily=Helvetica;fontSize=12;fontColor=default;fontStyle=0;" vertex="1" parent="1">
          <mxGeometry x="555" y="1030" width="30" height="30" as="geometry" />
        </mxCell>
        <mxCell id="8719MfFZnIL4oJ72OiLq-1" value="&lt;b&gt;&lt;font color=&quot;#ff0000&quot;&gt;Report&lt;/font&gt;&lt;/b&gt;" style="swimlane;fontStyle=0;childLayout=stackLayout;horizontal=1;startSize=30;horizontalStack=0;resizeParent=1;resizeParentMax=0;resizeLast=0;collapsible=1;marginBottom=0;whiteSpace=wrap;html=1;fontFamily=Times New Roman;" vertex="1" parent="1">
          <mxGeometry x="-180" y="665" width="150" height="170" as="geometry">
            <mxRectangle x="150" y="460" width="60" height="30" as="alternateBounds" />
          </mxGeometry>
        </mxCell>
        <mxCell id="8719MfFZnIL4oJ72OiLq-2" value="-&lt;b&gt;reportID:&lt;/b&gt;&amp;nbsp;Integer&lt;div&gt;&lt;span style=&quot;background-color: initial;&quot;&gt;-&lt;b&gt;userID: &lt;/b&gt;String&lt;/span&gt;&lt;/div&gt;&lt;div&gt;&lt;span style=&quot;background-color: initial;&quot;&gt;-t&lt;b&gt;ype&lt;/b&gt;: String&lt;/span&gt;&lt;/div&gt;&lt;div&gt;&lt;span style=&quot;background-color: initial;&quot;&gt;&lt;b&gt;-content: &lt;/b&gt;String&lt;/span&gt;&lt;/div&gt;&lt;div&gt;&lt;span style=&quot;background-color: initial;&quot;&gt;&lt;b&gt;&lt;br&gt;&lt;/b&gt;&lt;/span&gt;&lt;/div&gt;" style="rounded=0;whiteSpace=wrap;html=1;align=left;verticalAlign=top;fontFamily=Times New Roman;" vertex="1" parent="8719MfFZnIL4oJ72OiLq-1">
          <mxGeometry y="30" width="150" height="80" as="geometry" />
        </mxCell>
        <mxCell id="8719MfFZnIL4oJ72OiLq-3" value="&lt;div&gt;&lt;span style=&quot;background-color: initial;&quot;&gt;&lt;b&gt;#createReport(): void&lt;/b&gt;&lt;/span&gt;&lt;/div&gt;&lt;div&gt;&lt;b&gt;#deleteReport(): void&lt;/b&gt;&lt;/div&gt;&lt;div&gt;&lt;b&gt;#updateReport: void&lt;/b&gt;&lt;/div&gt;" style="rounded=0;whiteSpace=wrap;html=1;align=left;verticalAlign=top;fontFamily=Times New Roman;" vertex="1" parent="8719MfFZnIL4oJ72OiLq-1">
          <mxGeometry y="110" width="150" height="60" as="geometry" />
        </mxCell>
        <mxCell id="8719MfFZnIL4oJ72OiLq-4" style="edgeStyle=orthogonalEdgeStyle;rounded=0;orthogonalLoop=1;jettySize=auto;html=1;exitX=0.5;exitY=1;exitDx=0;exitDy=0;entryX=0.5;entryY=0;entryDx=0;entryDy=0;endArrow=none;endFill=0;" edge="1" parent="1" source="8DxKa7WhByMmZHTqV09v-45" target="8719MfFZnIL4oJ72OiLq-1">
          <mxGeometry relative="1" as="geometry" />
        </mxCell>
        <mxCell id="8719MfFZnIL4oJ72OiLq-5" value="1" style="text;html=1;align=center;verticalAlign=middle;resizable=0;points=[];autosize=1;strokeColor=none;fillColor=none;fontFamily=Helvetica;fontSize=12;fontColor=default;fontStyle=0;" vertex="1" parent="1">
          <mxGeometry x="-130" y="560" width="30" height="30" as="geometry" />
        </mxCell>
        <mxCell id="8719MfFZnIL4oJ72OiLq-8" value="N" style="text;html=1;align=center;verticalAlign=middle;resizable=0;points=[];autosize=1;strokeColor=none;fillColor=none;fontFamily=Helvetica;fontSize=12;fontColor=default;fontStyle=0;" vertex="1" parent="1">
          <mxGeometry x="-100" y="635" width="30" height="30" as="geometry" />
        </mxCell>
        <mxCell id="dRBXE2glCHkeM7AB_J7a-1" style="rounded=0;orthogonalLoop=1;jettySize=auto;html=1;exitX=0;exitY=0.75;exitDx=0;exitDy=0;entryX=1;entryY=0.5;entryDx=0;entryDy=0;endArrow=none;endFill=0;" edge="1" parent="1" source="8DxKa7WhByMmZHTqV09v-48" target="8DxKa7WhByMmZHTqV09v-25">
          <mxGeometry relative="1" as="geometry" />
        </mxCell>
        <mxCell id="dRBXE2glCHkeM7AB_J7a-2" style="rounded=0;orthogonalLoop=1;jettySize=auto;html=1;exitX=0;exitY=0.25;exitDx=0;exitDy=0;entryX=1;entryY=0.75;entryDx=0;entryDy=0;endArrow=none;endFill=0;" edge="1" parent="1" source="8DxKa7WhByMmZHTqV09v-47" target="8DxKa7WhByMmZHTqV09v-11">
          <mxGeometry relative="1" as="geometry" />
        </mxCell>
        <mxCell id="dRBXE2glCHkeM7AB_J7a-3" value="N" style="text;html=1;align=center;verticalAlign=middle;resizable=0;points=[];autosize=1;strokeColor=none;fillColor=none;fontFamily=Helvetica;fontSize=12;fontColor=default;fontStyle=0;" vertex="1" parent="1">
          <mxGeometry x="540" y="708" width="30" height="30" as="geometry" />
        </mxCell>
        <mxCell id="dRBXE2glCHkeM7AB_J7a-4" value="1" style="text;html=1;align=center;verticalAlign=middle;resizable=0;points=[];autosize=1;strokeColor=none;fillColor=none;fontFamily=Helvetica;fontSize=12;fontColor=default;fontStyle=0;" vertex="1" parent="1">
          <mxGeometry x="710" y="820" width="30" height="30" as="geometry" />
        </mxCell>
      </root>
    </mxGraphModel>
  </diagram>
  <diagram id="Jg7y-nFgwvFfDYCq-6YQ" name="Use Case">
    <mxGraphModel grid="1" page="1" gridSize="10" guides="1" tooltips="1" connect="1" arrows="1" fold="1" pageScale="1" pageWidth="850" pageHeight="1100" math="0" shadow="0">
      <root>
        <mxCell id="0" />
        <mxCell id="1" parent="0" />
        <mxCell id="bedORE4oNQGYiHO1L7aS-1" value="" style="rounded=0;whiteSpace=wrap;html=1;" vertex="1" parent="1">
          <mxGeometry x="230" y="80" width="740" height="950" as="geometry" />
        </mxCell>
        <mxCell id="bedORE4oNQGYiHO1L7aS-2" value="Khách hàng" style="shape=umlActor;verticalLabelPosition=bottom;verticalAlign=top;html=1;outlineConnect=0;" vertex="1" parent="1">
          <mxGeometry x="60" y="430" width="30" height="60" as="geometry" />
        </mxCell>
        <mxCell id="bedORE4oNQGYiHO1L7aS-3" value="Theo dõi đơn hàng" style="ellipse;whiteSpace=wrap;html=1;" vertex="1" parent="1">
          <mxGeometry x="260" y="570" width="100" height="60" as="geometry" />
        </mxCell>
        <mxCell id="bedORE4oNQGYiHO1L7aS-4" style="rounded=0;orthogonalLoop=1;jettySize=auto;html=1;entryX=0.5;entryY=0;entryDx=0;entryDy=0;dashed=1;" edge="1" parent="1" source="bedORE4oNQGYiHO1L7aS-10" target="bedORE4oNQGYiHO1L7aS-3">
          <mxGeometry relative="1" as="geometry" />
        </mxCell>
        <mxCell id="bedORE4oNQGYiHO1L7aS-5" value="include" style="edgeLabel;html=1;align=center;verticalAlign=middle;resizable=0;points=[];" connectable="0" vertex="1" parent="bedORE4oNQGYiHO1L7aS-4">
          <mxGeometry x="-0.25" y="1" relative="1" as="geometry">
            <mxPoint as="offset" />
          </mxGeometry>
        </mxCell>
        <mxCell id="bedORE4oNQGYiHO1L7aS-6" style="rounded=0;orthogonalLoop=1;jettySize=auto;html=1;entryX=0.5;entryY=1;entryDx=0;entryDy=0;dashed=1;" edge="1" parent="1" source="bedORE4oNQGYiHO1L7aS-10" target="bedORE4oNQGYiHO1L7aS-48">
          <mxGeometry relative="1" as="geometry" />
        </mxCell>
        <mxCell id="bedORE4oNQGYiHO1L7aS-7" value="include" style="edgeLabel;html=1;align=center;verticalAlign=middle;resizable=0;points=[];" connectable="0" vertex="1" parent="bedORE4oNQGYiHO1L7aS-6">
          <mxGeometry x="0.0018" y="2" relative="1" as="geometry">
            <mxPoint as="offset" />
          </mxGeometry>
        </mxCell>
        <mxCell id="bedORE4oNQGYiHO1L7aS-8" style="rounded=0;orthogonalLoop=1;jettySize=auto;html=1;dashed=1;" edge="1" parent="1" source="bedORE4oNQGYiHO1L7aS-10" target="bedORE4oNQGYiHO1L7aS-50">
          <mxGeometry relative="1" as="geometry" />
        </mxCell>
        <mxCell id="bedORE4oNQGYiHO1L7aS-9" value="include" style="edgeLabel;html=1;align=center;verticalAlign=middle;resizable=0;points=[];" connectable="0" vertex="1" parent="bedORE4oNQGYiHO1L7aS-8">
          <mxGeometry x="-0.156" y="-1" relative="1" as="geometry">
            <mxPoint as="offset" />
          </mxGeometry>
        </mxCell>
        <mxCell id="bedORE4oNQGYiHO1L7aS-10" value="Mua hàng trực tuyến" style="ellipse;whiteSpace=wrap;html=1;" vertex="1" parent="1">
          <mxGeometry x="260" y="430" width="100" height="60" as="geometry" />
        </mxCell>
        <mxCell id="e6j1tcS87Yy2as1h6Wif-8" style="rounded=0;orthogonalLoop=1;jettySize=auto;html=1;entryX=0.5;entryY=0;entryDx=0;entryDy=0;dashed=1;" edge="1" parent="1" source="bedORE4oNQGYiHO1L7aS-11" target="e6j1tcS87Yy2as1h6Wif-5">
          <mxGeometry relative="1" as="geometry" />
        </mxCell>
        <mxCell id="e6j1tcS87Yy2as1h6Wif-9" value="include" style="edgeLabel;html=1;align=center;verticalAlign=middle;resizable=0;points=[];" connectable="0" vertex="1" parent="e6j1tcS87Yy2as1h6Wif-8">
          <mxGeometry x="-0.0579" y="-3" relative="1" as="geometry">
            <mxPoint as="offset" />
          </mxGeometry>
        </mxCell>
        <mxCell id="e6j1tcS87Yy2as1h6Wif-10" style="rounded=0;orthogonalLoop=1;jettySize=auto;html=1;entryX=0;entryY=0;entryDx=0;entryDy=0;dashed=1;" edge="1" parent="1" source="bedORE4oNQGYiHO1L7aS-11" target="e6j1tcS87Yy2as1h6Wif-4">
          <mxGeometry relative="1" as="geometry" />
        </mxCell>
        <mxCell id="e6j1tcS87Yy2as1h6Wif-11" value="include" style="edgeLabel;html=1;align=center;verticalAlign=middle;resizable=0;points=[];" connectable="0" vertex="1" parent="e6j1tcS87Yy2as1h6Wif-10">
          <mxGeometry x="-0.1507" y="1" relative="1" as="geometry">
            <mxPoint as="offset" />
          </mxGeometry>
        </mxCell>
        <mxCell id="bedORE4oNQGYiHO1L7aS-11" value="Quản lý thông tin" style="ellipse;whiteSpace=wrap;html=1;" vertex="1" parent="1">
          <mxGeometry x="270" y="690" width="100" height="60" as="geometry" />
        </mxCell>
        <mxCell id="bedORE4oNQGYiHO1L7aS-12" style="rounded=0;orthogonalLoop=1;jettySize=auto;html=1;entryX=0.07;entryY=0.704;entryDx=0;entryDy=0;entryPerimeter=0;endArrow=none;endFill=0;" edge="1" parent="1" source="bedORE4oNQGYiHO1L7aS-2" target="bedORE4oNQGYiHO1L7aS-10">
          <mxGeometry relative="1" as="geometry" />
        </mxCell>
        <mxCell id="bedORE4oNQGYiHO1L7aS-13" style="rounded=0;orthogonalLoop=1;jettySize=auto;html=1;entryX=0.05;entryY=0.654;entryDx=0;entryDy=0;entryPerimeter=0;endArrow=none;endFill=0;" edge="1" parent="1" source="bedORE4oNQGYiHO1L7aS-2" target="bedORE4oNQGYiHO1L7aS-3">
          <mxGeometry relative="1" as="geometry" />
        </mxCell>
        <mxCell id="bedORE4oNQGYiHO1L7aS-14" style="rounded=0;orthogonalLoop=1;jettySize=auto;html=1;entryX=0.08;entryY=0.304;entryDx=0;entryDy=0;entryPerimeter=0;endArrow=none;endFill=0;" edge="1" parent="1" source="bedORE4oNQGYiHO1L7aS-2" target="bedORE4oNQGYiHO1L7aS-11">
          <mxGeometry relative="1" as="geometry" />
        </mxCell>
        <mxCell id="bedORE4oNQGYiHO1L7aS-15" style="rounded=0;orthogonalLoop=1;jettySize=auto;html=1;entryX=1;entryY=1;entryDx=0;entryDy=0;endArrow=none;endFill=0;" edge="1" parent="1" source="bedORE4oNQGYiHO1L7aS-19" target="bedORE4oNQGYiHO1L7aS-20">
          <mxGeometry relative="1" as="geometry" />
        </mxCell>
        <mxCell id="bedORE4oNQGYiHO1L7aS-16" style="rounded=0;orthogonalLoop=1;jettySize=auto;html=1;endArrow=none;endFill=0;" edge="1" parent="1" source="bedORE4oNQGYiHO1L7aS-19" target="bedORE4oNQGYiHO1L7aS-21">
          <mxGeometry relative="1" as="geometry" />
        </mxCell>
        <mxCell id="bedORE4oNQGYiHO1L7aS-17" style="rounded=0;orthogonalLoop=1;jettySize=auto;html=1;endArrow=none;endFill=0;" edge="1" parent="1" source="bedORE4oNQGYiHO1L7aS-19" target="bedORE4oNQGYiHO1L7aS-22">
          <mxGeometry relative="1" as="geometry" />
        </mxCell>
        <mxCell id="bedORE4oNQGYiHO1L7aS-18" style="rounded=0;orthogonalLoop=1;jettySize=auto;html=1;endArrow=none;endFill=0;" edge="1" parent="1" source="bedORE4oNQGYiHO1L7aS-19" target="bedORE4oNQGYiHO1L7aS-30">
          <mxGeometry relative="1" as="geometry" />
        </mxCell>
        <mxCell id="bedORE4oNQGYiHO1L7aS-19" value="Admin" style="shape=umlActor;verticalLabelPosition=bottom;verticalAlign=top;html=1;outlineConnect=0;" vertex="1" parent="1">
          <mxGeometry x="1060" y="200" width="30" height="60" as="geometry" />
        </mxCell>
        <mxCell id="bedORE4oNQGYiHO1L7aS-20" value="Quản lý người dùng" style="ellipse;whiteSpace=wrap;html=1;" vertex="1" parent="1">
          <mxGeometry x="630" y="130" width="100" height="60" as="geometry" />
        </mxCell>
        <mxCell id="bedORE4oNQGYiHO1L7aS-21" value="Quản lý sản phẩm" style="ellipse;whiteSpace=wrap;html=1;" vertex="1" parent="1">
          <mxGeometry x="620" y="210" width="100" height="60" as="geometry" />
        </mxCell>
        <mxCell id="bedORE4oNQGYiHO1L7aS-22" value="Quản lý đơn hàng" style="ellipse;whiteSpace=wrap;html=1;" vertex="1" parent="1">
          <mxGeometry x="650" y="290" width="100" height="60" as="geometry" />
        </mxCell>
        <mxCell id="bedORE4oNQGYiHO1L7aS-23" style="rounded=0;orthogonalLoop=1;jettySize=auto;html=1;entryX=0.5;entryY=1;entryDx=0;entryDy=0;dashed=1;" edge="1" parent="1" source="bedORE4oNQGYiHO1L7aS-25" target="bedORE4oNQGYiHO1L7aS-33">
          <mxGeometry relative="1" as="geometry" />
        </mxCell>
        <mxCell id="bedORE4oNQGYiHO1L7aS-24" value="extend" style="edgeLabel;html=1;align=center;verticalAlign=middle;resizable=0;points=[];" connectable="0" vertex="1" parent="bedORE4oNQGYiHO1L7aS-23">
          <mxGeometry x="0.0166" y="-2" relative="1" as="geometry">
            <mxPoint as="offset" />
          </mxGeometry>
        </mxCell>
        <mxCell id="bedORE4oNQGYiHO1L7aS-25" value="Xác nhận thanh toán" style="ellipse;whiteSpace=wrap;html=1;" vertex="1" parent="1">
          <mxGeometry x="630" y="710" width="100" height="60" as="geometry" />
        </mxCell>
        <mxCell id="bedORE4oNQGYiHO1L7aS-26" style="rounded=0;orthogonalLoop=1;jettySize=auto;html=1;dashed=1;entryX=0.44;entryY=-0.029;entryDx=0;entryDy=0;entryPerimeter=0;" edge="1" parent="1" source="bedORE4oNQGYiHO1L7aS-30" target="bedORE4oNQGYiHO1L7aS-41">
          <mxGeometry relative="1" as="geometry">
            <mxPoint x="740" y="470" as="targetPoint" />
          </mxGeometry>
        </mxCell>
        <mxCell id="bedORE4oNQGYiHO1L7aS-27" value="include" style="edgeLabel;html=1;align=center;verticalAlign=middle;resizable=0;points=[];" connectable="0" vertex="1" parent="bedORE4oNQGYiHO1L7aS-26">
          <mxGeometry x="-0.1429" relative="1" as="geometry">
            <mxPoint as="offset" />
          </mxGeometry>
        </mxCell>
        <mxCell id="bedORE4oNQGYiHO1L7aS-28" style="rounded=0;orthogonalLoop=1;jettySize=auto;html=1;entryX=0.5;entryY=0;entryDx=0;entryDy=0;dashed=1;" edge="1" parent="1" source="bedORE4oNQGYiHO1L7aS-30" target="bedORE4oNQGYiHO1L7aS-60">
          <mxGeometry relative="1" as="geometry" />
        </mxCell>
        <mxCell id="bedORE4oNQGYiHO1L7aS-29" value="include" style="edgeLabel;html=1;align=center;verticalAlign=middle;resizable=0;points=[];" connectable="0" vertex="1" parent="bedORE4oNQGYiHO1L7aS-28">
          <mxGeometry x="-0.2021" y="1" relative="1" as="geometry">
            <mxPoint as="offset" />
          </mxGeometry>
        </mxCell>
        <mxCell id="bedORE4oNQGYiHO1L7aS-30" value="Quản lý tài chính" style="ellipse;whiteSpace=wrap;html=1;" vertex="1" parent="1">
          <mxGeometry x="650" y="370" width="100" height="60" as="geometry" />
        </mxCell>
        <mxCell id="bedORE4oNQGYiHO1L7aS-31" style="rounded=0;orthogonalLoop=1;jettySize=auto;html=1;entryX=1;entryY=0.5;entryDx=0;entryDy=0;dashed=1;" edge="1" parent="1" source="bedORE4oNQGYiHO1L7aS-33" target="bedORE4oNQGYiHO1L7aS-3">
          <mxGeometry relative="1" as="geometry" />
        </mxCell>
        <mxCell id="bedORE4oNQGYiHO1L7aS-32" value="include" style="edgeLabel;html=1;align=center;verticalAlign=middle;resizable=0;points=[];" connectable="0" vertex="1" parent="bedORE4oNQGYiHO1L7aS-31">
          <mxGeometry x="0.0681" y="-4" relative="1" as="geometry">
            <mxPoint as="offset" />
          </mxGeometry>
        </mxCell>
        <mxCell id="bedORE4oNQGYiHO1L7aS-33" value="Xử lý đơn hàng" style="ellipse;whiteSpace=wrap;html=1;" vertex="1" parent="1">
          <mxGeometry x="625" y="570" width="100" height="60" as="geometry" />
        </mxCell>
        <mxCell id="bedORE4oNQGYiHO1L7aS-34" style="rounded=0;orthogonalLoop=1;jettySize=auto;html=1;endArrow=none;endFill=0;" edge="1" parent="1" source="bedORE4oNQGYiHO1L7aS-37" target="bedORE4oNQGYiHO1L7aS-33">
          <mxGeometry relative="1" as="geometry" />
        </mxCell>
        <mxCell id="bedORE4oNQGYiHO1L7aS-35" style="rounded=0;orthogonalLoop=1;jettySize=auto;html=1;endArrow=none;endFill=0;" edge="1" parent="1" source="bedORE4oNQGYiHO1L7aS-37" target="bedORE4oNQGYiHO1L7aS-25">
          <mxGeometry relative="1" as="geometry" />
        </mxCell>
        <mxCell id="bedORE4oNQGYiHO1L7aS-36" style="rounded=0;orthogonalLoop=1;jettySize=auto;html=1;entryX=1;entryY=0.5;entryDx=0;entryDy=0;endArrow=none;endFill=0;" edge="1" parent="1" source="bedORE4oNQGYiHO1L7aS-37" target="bedORE4oNQGYiHO1L7aS-60">
          <mxGeometry relative="1" as="geometry" />
        </mxCell>
        <mxCell id="bedORE4oNQGYiHO1L7aS-37" value="Nhân viến bán hàng" style="shape=umlActor;verticalLabelPosition=bottom;verticalAlign=top;html=1;outlineConnect=0;" vertex="1" parent="1">
          <mxGeometry x="1050" y="570" width="30" height="60" as="geometry" />
        </mxCell>
        <mxCell id="bedORE4oNQGYiHO1L7aS-38" style="rounded=0;orthogonalLoop=1;jettySize=auto;html=1;endArrow=none;endFill=0;" edge="1" parent="1" source="bedORE4oNQGYiHO1L7aS-39" target="bedORE4oNQGYiHO1L7aS-41">
          <mxGeometry relative="1" as="geometry" />
        </mxCell>
        <mxCell id="bedORE4oNQGYiHO1L7aS-39" value="Kế toán" style="shape=umlActor;verticalLabelPosition=bottom;verticalAlign=top;html=1;outlineConnect=0;" vertex="1" parent="1">
          <mxGeometry x="1050" y="410" width="30" height="60" as="geometry" />
        </mxCell>
        <mxCell id="bedORE4oNQGYiHO1L7aS-40" style="rounded=0;orthogonalLoop=1;jettySize=auto;html=1;entryX=0.93;entryY=0.704;entryDx=0;entryDy=0;entryPerimeter=0;endArrow=none;endFill=0;" edge="1" parent="1" source="bedORE4oNQGYiHO1L7aS-39" target="bedORE4oNQGYiHO1L7aS-30">
          <mxGeometry relative="1" as="geometry" />
        </mxCell>
        <mxCell id="bedORE4oNQGYiHO1L7aS-41" value="Tạo báo cáo tài chính" style="ellipse;whiteSpace=wrap;html=1;" vertex="1" parent="1">
          <mxGeometry x="610" y="490" width="100" height="60" as="geometry" />
        </mxCell>
        <mxCell id="bedORE4oNQGYiHO1L7aS-42" style="rounded=0;orthogonalLoop=1;jettySize=auto;html=1;endArrow=none;endFill=0;" edge="1" parent="1" source="bedORE4oNQGYiHO1L7aS-44" target="bedORE4oNQGYiHO1L7aS-45">
          <mxGeometry relative="1" as="geometry" />
        </mxCell>
        <mxCell id="bedORE4oNQGYiHO1L7aS-43" style="rounded=0;orthogonalLoop=1;jettySize=auto;html=1;endArrow=none;endFill=0;" edge="1" parent="1" source="bedORE4oNQGYiHO1L7aS-44" target="bedORE4oNQGYiHO1L7aS-47">
          <mxGeometry relative="1" as="geometry" />
        </mxCell>
        <mxCell id="bedORE4oNQGYiHO1L7aS-44" value="Nhân viên kho" style="shape=umlActor;verticalLabelPosition=bottom;verticalAlign=top;html=1;outlineConnect=0;" vertex="1" parent="1">
          <mxGeometry x="1050" y="760" width="30" height="60" as="geometry" />
        </mxCell>
        <mxCell id="bedORE4oNQGYiHO1L7aS-45" value="Quản lý kho" style="ellipse;whiteSpace=wrap;html=1;" vertex="1" parent="1">
          <mxGeometry x="620" y="790" width="100" height="60" as="geometry" />
        </mxCell>
        <mxCell id="bedORE4oNQGYiHO1L7aS-46" value="&lt;h1 style=&quot;margin-top: 0px; line-height: 100%;&quot;&gt;&lt;font style=&quot;font-size: 18px; font-weight: normal;&quot;&gt;Quản lý bán hàng&lt;/font&gt;&lt;/h1&gt;" style="text;html=1;whiteSpace=wrap;overflow=hidden;rounded=0;" vertex="1" parent="1">
          <mxGeometry x="520" y="70" width="170" height="30" as="geometry" />
        </mxCell>
        <mxCell id="bedORE4oNQGYiHO1L7aS-47" value="Tạo báo cáo hàng tồn" style="ellipse;whiteSpace=wrap;html=1;" vertex="1" parent="1">
          <mxGeometry x="620" y="860" width="110" height="70" as="geometry" />
        </mxCell>
        <mxCell id="bedORE4oNQGYiHO1L7aS-48" value="Tìm sản phẩm" style="ellipse;whiteSpace=wrap;html=1;" vertex="1" parent="1">
          <mxGeometry x="230" y="240" width="90" height="60" as="geometry" />
        </mxCell>
        <mxCell id="bedORE4oNQGYiHO1L7aS-49" value="Thêm vào giỏ" style="ellipse;whiteSpace=wrap;html=1;" vertex="1" parent="1">
          <mxGeometry x="335" y="280" width="90" height="60" as="geometry" />
        </mxCell>
        <mxCell id="bedORE4oNQGYiHO1L7aS-50" value="Thanh toán" style="ellipse;whiteSpace=wrap;html=1;" vertex="1" parent="1">
          <mxGeometry x="430" y="320" width="90" height="60" as="geometry" />
        </mxCell>
        <mxCell id="bedORE4oNQGYiHO1L7aS-51" style="rounded=0;orthogonalLoop=1;jettySize=auto;html=1;dashed=1;" edge="1" parent="1" source="bedORE4oNQGYiHO1L7aS-10" target="bedORE4oNQGYiHO1L7aS-49">
          <mxGeometry relative="1" as="geometry">
            <mxPoint x="370" y="378" as="targetPoint" />
          </mxGeometry>
        </mxCell>
        <mxCell id="bedORE4oNQGYiHO1L7aS-52" value="include" style="edgeLabel;html=1;align=center;verticalAlign=middle;resizable=0;points=[];" connectable="0" vertex="1" parent="bedORE4oNQGYiHO1L7aS-51">
          <mxGeometry x="-0.163" y="1" relative="1" as="geometry">
            <mxPoint as="offset" />
          </mxGeometry>
        </mxCell>
        <mxCell id="e6j1tcS87Yy2as1h6Wif-12" style="rounded=0;orthogonalLoop=1;jettySize=auto;html=1;dashed=1;" edge="1" parent="1" source="bedORE4oNQGYiHO1L7aS-53" target="e6j1tcS87Yy2as1h6Wif-6">
          <mxGeometry relative="1" as="geometry" />
        </mxCell>
        <mxCell id="e6j1tcS87Yy2as1h6Wif-14" value="include" style="edgeLabel;html=1;align=center;verticalAlign=middle;resizable=0;points=[];" connectable="0" vertex="1" parent="e6j1tcS87Yy2as1h6Wif-12">
          <mxGeometry x="-0.0626" y="-2" relative="1" as="geometry">
            <mxPoint y="-1" as="offset" />
          </mxGeometry>
        </mxCell>
        <mxCell id="bedORE4oNQGYiHO1L7aS-53" value="Đăng nhập/ký" style="ellipse;whiteSpace=wrap;html=1;" vertex="1" parent="1">
          <mxGeometry x="460" y="660" width="90" height="60" as="geometry" />
        </mxCell>
        <mxCell id="bedORE4oNQGYiHO1L7aS-54" style="rounded=0;orthogonalLoop=1;jettySize=auto;html=1;entryX=0.94;entryY=0.838;entryDx=0;entryDy=0;entryPerimeter=0;dashed=1;startArrow=classic;startFill=1;endArrow=none;endFill=0;" edge="1" parent="1" source="bedORE4oNQGYiHO1L7aS-53" target="bedORE4oNQGYiHO1L7aS-10">
          <mxGeometry relative="1" as="geometry" />
        </mxCell>
        <mxCell id="bedORE4oNQGYiHO1L7aS-55" value="include" style="edgeLabel;html=1;align=center;verticalAlign=middle;resizable=0;points=[];" connectable="0" vertex="1" parent="bedORE4oNQGYiHO1L7aS-54">
          <mxGeometry x="0.024" y="1" relative="1" as="geometry">
            <mxPoint as="offset" />
          </mxGeometry>
        </mxCell>
        <mxCell id="bedORE4oNQGYiHO1L7aS-56" style="rounded=0;orthogonalLoop=1;jettySize=auto;html=1;entryX=0.93;entryY=0.304;entryDx=0;entryDy=0;entryPerimeter=0;dashed=1;startArrow=classic;startFill=1;endArrow=none;endFill=0;" edge="1" parent="1" source="bedORE4oNQGYiHO1L7aS-53" target="bedORE4oNQGYiHO1L7aS-3">
          <mxGeometry relative="1" as="geometry" />
        </mxCell>
        <mxCell id="bedORE4oNQGYiHO1L7aS-57" value="include" style="edgeLabel;html=1;align=center;verticalAlign=middle;resizable=0;points=[];" connectable="0" vertex="1" parent="bedORE4oNQGYiHO1L7aS-56">
          <mxGeometry x="-0.1311" y="-3" relative="1" as="geometry">
            <mxPoint as="offset" />
          </mxGeometry>
        </mxCell>
        <mxCell id="bedORE4oNQGYiHO1L7aS-58" style="rounded=0;orthogonalLoop=1;jettySize=auto;html=1;entryX=0.77;entryY=0.138;entryDx=0;entryDy=0;entryPerimeter=0;dashed=1;startArrow=classic;startFill=1;endArrow=none;endFill=0;" edge="1" parent="1" source="bedORE4oNQGYiHO1L7aS-53" target="bedORE4oNQGYiHO1L7aS-11">
          <mxGeometry relative="1" as="geometry" />
        </mxCell>
        <mxCell id="bedORE4oNQGYiHO1L7aS-59" value="include" style="edgeLabel;html=1;align=center;verticalAlign=middle;resizable=0;points=[];" connectable="0" vertex="1" parent="bedORE4oNQGYiHO1L7aS-58">
          <mxGeometry x="0.1605" y="-2" relative="1" as="geometry">
            <mxPoint as="offset" />
          </mxGeometry>
        </mxCell>
        <mxCell id="bedORE4oNQGYiHO1L7aS-60" value="Tạo báo cáo doanh thu" style="ellipse;whiteSpace=wrap;html=1;" vertex="1" parent="1">
          <mxGeometry x="730" y="520" width="100" height="60" as="geometry" />
        </mxCell>
        <mxCell id="e6j1tcS87Yy2as1h6Wif-2" style="edgeStyle=orthogonalEdgeStyle;rounded=0;orthogonalLoop=1;jettySize=auto;html=1;dashed=1;" edge="1" parent="1" source="e6j1tcS87Yy2as1h6Wif-1" target="bedORE4oNQGYiHO1L7aS-10">
          <mxGeometry relative="1" as="geometry" />
        </mxCell>
        <mxCell id="e6j1tcS87Yy2as1h6Wif-3" value="extend" style="edgeLabel;html=1;align=center;verticalAlign=middle;resizable=0;points=[];" connectable="0" vertex="1" parent="e6j1tcS87Yy2as1h6Wif-2">
          <mxGeometry x="0.0752" y="-1" relative="1" as="geometry">
            <mxPoint x="-1" as="offset" />
          </mxGeometry>
        </mxCell>
        <mxCell id="e6j1tcS87Yy2as1h6Wif-1" value="Đánh giá sản phẩm" style="ellipse;whiteSpace=wrap;html=1;" vertex="1" parent="1">
          <mxGeometry x="450" y="430" width="100" height="60" as="geometry" />
        </mxCell>
        <mxCell id="e6j1tcS87Yy2as1h6Wif-4" value="Đổi mật khẩu" style="ellipse;whiteSpace=wrap;html=1;" vertex="1" parent="1">
          <mxGeometry x="360" y="820" width="90" height="70" as="geometry" />
        </mxCell>
        <mxCell id="e6j1tcS87Yy2as1h6Wif-5" value="Cập nhật&lt;div&gt;&amp;nbsp;địa chỉ&lt;/div&gt;" style="ellipse;whiteSpace=wrap;html=1;" vertex="1" parent="1">
          <mxGeometry x="240" y="830" width="90" height="70" as="geometry" />
        </mxCell>
        <mxCell id="e6j1tcS87Yy2as1h6Wif-6" value="Quên mật khẩu" style="ellipse;whiteSpace=wrap;html=1;" vertex="1" parent="1">
          <mxGeometry x="490" y="785" width="90" height="70" as="geometry" />
        </mxCell>
        <mxCell id="e6j1tcS87Yy2as1h6Wif-13" style="edgeStyle=orthogonalEdgeStyle;rounded=0;orthogonalLoop=1;jettySize=auto;html=1;exitX=0.5;exitY=1;exitDx=0;exitDy=0;" edge="1" parent="1" source="bedORE4oNQGYiHO1L7aS-46" target="bedORE4oNQGYiHO1L7aS-46">
          <mxGeometry relative="1" as="geometry" />
        </mxCell>
      </root>
    </mxGraphModel>
  </diagram>
  <diagram id="bVk76lpM1sljpiwrkZ1y" name="Sequence">
    <mxGraphModel grid="1" page="1" gridSize="10" guides="1" tooltips="1" connect="1" arrows="1" fold="1" pageScale="1" pageWidth="850" pageHeight="1100" math="0" shadow="0">
      <root>
        <mxCell id="0" />
        <mxCell id="1" parent="0" />
        <mxCell id="u00_426OVmncsDZseM0s-8" value="" style="shape=umlLifeline;perimeter=lifelinePerimeter;whiteSpace=wrap;html=1;container=1;dropTarget=0;collapsible=0;recursiveResize=0;outlineConnect=0;portConstraint=eastwest;newEdgeStyle={&quot;curved&quot;:0,&quot;rounded&quot;:0};participant=umlActor;" vertex="1" parent="1">
          <mxGeometry x="-80" y="-20" width="20" height="260" as="geometry" />
        </mxCell>
        <mxCell id="u00_426OVmncsDZseM0s-9" value="UI" style="shape=umlLifeline;perimeter=lifelinePerimeter;whiteSpace=wrap;html=1;container=1;dropTarget=0;collapsible=0;recursiveResize=0;outlineConnect=0;portConstraint=eastwest;newEdgeStyle={&quot;curved&quot;:0,&quot;rounded&quot;:0};" vertex="1" parent="1">
          <mxGeometry x="70" y="-20" width="100" height="260" as="geometry" />
        </mxCell>
        <mxCell id="u00_426OVmncsDZseM0s-10" value="System" style="shape=umlLifeline;perimeter=lifelinePerimeter;whiteSpace=wrap;html=1;container=1;dropTarget=0;collapsible=0;recursiveResize=0;outlineConnect=0;portConstraint=eastwest;newEdgeStyle={&quot;curved&quot;:0,&quot;rounded&quot;:0};" vertex="1" parent="1">
          <mxGeometry x="310" y="-20" width="100" height="260" as="geometry" />
        </mxCell>
        <mxCell id="u00_426OVmncsDZseM0s-11" value="Database" style="shape=umlLifeline;perimeter=lifelinePerimeter;whiteSpace=wrap;html=1;container=1;dropTarget=0;collapsible=0;recursiveResize=0;outlineConnect=0;portConstraint=eastwest;newEdgeStyle={&quot;curved&quot;:0,&quot;rounded&quot;:0};" vertex="1" parent="1">
          <mxGeometry x="540" y="-20" width="100" height="260" as="geometry" />
        </mxCell>
        <mxCell id="u00_426OVmncsDZseM0s-14" value="Admin" style="text;html=1;align=center;verticalAlign=middle;resizable=0;points=[];autosize=1;strokeColor=none;fillColor=none;" vertex="1" parent="1">
          <mxGeometry x="-100" y="-50" width="60" height="30" as="geometry" />
        </mxCell>
        <mxCell id="oSMGb4S1VwOe12NabHZr-6" value="" style="group" connectable="0" vertex="1" parent="1">
          <mxGeometry x="-50" y="20" width="160" height="40" as="geometry" />
        </mxCell>
        <mxCell id="oSMGb4S1VwOe12NabHZr-4" value="" style="endArrow=open;endFill=1;endSize=12;html=1;rounded=0;" edge="1" parent="oSMGb4S1VwOe12NabHZr-6">
          <mxGeometry width="160" relative="1" as="geometry">
            <mxPoint y="40" as="sourcePoint" />
            <mxPoint x="160" y="40" as="targetPoint" />
          </mxGeometry>
        </mxCell>
        <mxCell id="oSMGb4S1VwOe12NabHZr-5" value="Yêu cầu danh sách&lt;div&gt;quản lí&lt;/div&gt;" style="text;html=1;align=center;verticalAlign=middle;resizable=0;points=[];autosize=1;strokeColor=none;fillColor=none;" vertex="1" parent="oSMGb4S1VwOe12NabHZr-6">
          <mxGeometry x="10" width="130" height="40" as="geometry" />
        </mxCell>
        <mxCell id="oSMGb4S1VwOe12NabHZr-7" value="" style="group" connectable="0" vertex="1" parent="1">
          <mxGeometry x="160" y="40" width="160" height="40" as="geometry" />
        </mxCell>
        <mxCell id="oSMGb4S1VwOe12NabHZr-8" value="" style="endArrow=open;endFill=1;endSize=12;html=1;rounded=0;" edge="1" parent="oSMGb4S1VwOe12NabHZr-7">
          <mxGeometry width="160" relative="1" as="geometry">
            <mxPoint y="40" as="sourcePoint" />
            <mxPoint x="160" y="40" as="targetPoint" />
          </mxGeometry>
        </mxCell>
        <mxCell id="oSMGb4S1VwOe12NabHZr-9" value="Gửi yêu cầu" style="text;html=1;align=center;verticalAlign=middle;resizable=0;points=[];autosize=1;strokeColor=none;fillColor=none;" vertex="1" parent="oSMGb4S1VwOe12NabHZr-7">
          <mxGeometry x="30" y="5" width="90" height="30" as="geometry" />
        </mxCell>
        <mxCell id="oSMGb4S1VwOe12NabHZr-11" value="" style="group" connectable="0" vertex="1" parent="1">
          <mxGeometry x="400" y="50" width="160" height="40" as="geometry" />
        </mxCell>
        <mxCell id="oSMGb4S1VwOe12NabHZr-12" value="" style="endArrow=open;endFill=1;endSize=12;html=1;rounded=0;" edge="1" parent="oSMGb4S1VwOe12NabHZr-11">
          <mxGeometry width="160" relative="1" as="geometry">
            <mxPoint y="40" as="sourcePoint" />
            <mxPoint x="160" y="40" as="targetPoint" />
          </mxGeometry>
        </mxCell>
        <mxCell id="oSMGb4S1VwOe12NabHZr-13" value="Xác nhận yêu cầu" style="text;html=1;align=center;verticalAlign=middle;resizable=0;points=[];autosize=1;strokeColor=none;fillColor=none;" vertex="1" parent="oSMGb4S1VwOe12NabHZr-11">
          <mxGeometry x="15" y="5" width="120" height="30" as="geometry" />
        </mxCell>
        <mxCell id="oSMGb4S1VwOe12NabHZr-20" value="" style="group" connectable="0" vertex="1" parent="1">
          <mxGeometry x="400" y="95" width="160" height="35" as="geometry" />
        </mxCell>
        <mxCell id="oSMGb4S1VwOe12NabHZr-18" value="" style="endArrow=open;endFill=1;endSize=12;html=1;rounded=0;" edge="1" parent="oSMGb4S1VwOe12NabHZr-20">
          <mxGeometry width="160" relative="1" as="geometry">
            <mxPoint x="160" y="32" as="sourcePoint" />
            <mxPoint y="32" as="targetPoint" />
          </mxGeometry>
        </mxCell>
        <mxCell id="oSMGb4S1VwOe12NabHZr-19" value="Trả về danh sách&lt;div&gt;quản lí&lt;/div&gt;" style="text;html=1;align=center;verticalAlign=middle;resizable=0;points=[];autosize=1;strokeColor=none;fillColor=none;" vertex="1" parent="oSMGb4S1VwOe12NabHZr-20">
          <mxGeometry x="20" y="-5" width="120" height="40" as="geometry" />
        </mxCell>
        <mxCell id="oSMGb4S1VwOe12NabHZr-21" value="" style="group" connectable="0" vertex="1" parent="1">
          <mxGeometry x="160" y="110" width="160" height="35" as="geometry" />
        </mxCell>
        <mxCell id="oSMGb4S1VwOe12NabHZr-22" value="" style="endArrow=open;endFill=1;endSize=12;html=1;rounded=0;" edge="1" parent="oSMGb4S1VwOe12NabHZr-21">
          <mxGeometry width="160" relative="1" as="geometry">
            <mxPoint x="160" y="32" as="sourcePoint" />
            <mxPoint y="32" as="targetPoint" />
          </mxGeometry>
        </mxCell>
        <mxCell id="oSMGb4S1VwOe12NabHZr-23" value="Cập nhật danh sách&lt;div&gt;quản lí&lt;/div&gt;" style="text;html=1;align=center;verticalAlign=middle;resizable=0;points=[];autosize=1;strokeColor=none;fillColor=none;" vertex="1" parent="oSMGb4S1VwOe12NabHZr-21">
          <mxGeometry x="15" y="-5" width="130" height="40" as="geometry" />
        </mxCell>
        <mxCell id="oSMGb4S1VwOe12NabHZr-24" value="" style="group" connectable="0" vertex="1" parent="1">
          <mxGeometry x="-50" y="130" width="160" height="35" as="geometry" />
        </mxCell>
        <mxCell id="oSMGb4S1VwOe12NabHZr-25" value="" style="endArrow=open;endFill=1;endSize=12;html=1;rounded=0;" edge="1" parent="oSMGb4S1VwOe12NabHZr-24">
          <mxGeometry width="160" relative="1" as="geometry">
            <mxPoint x="160" y="32" as="sourcePoint" />
            <mxPoint y="32" as="targetPoint" />
          </mxGeometry>
        </mxCell>
        <mxCell id="oSMGb4S1VwOe12NabHZr-26" value="Hiển thị danh sách&lt;div&gt;quản lí&lt;/div&gt;" style="text;html=1;align=center;verticalAlign=middle;resizable=0;points=[];autosize=1;strokeColor=none;fillColor=none;" vertex="1" parent="oSMGb4S1VwOe12NabHZr-24">
          <mxGeometry x="20" y="-5" width="120" height="40" as="geometry" />
        </mxCell>
        <mxCell id="oSMGb4S1VwOe12NabHZr-33" value="" style="shape=umlLifeline;perimeter=lifelinePerimeter;whiteSpace=wrap;html=1;container=1;dropTarget=0;collapsible=0;recursiveResize=0;outlineConnect=0;portConstraint=eastwest;newEdgeStyle={&quot;curved&quot;:0,&quot;rounded&quot;:0};participant=umlActor;" vertex="1" parent="1">
          <mxGeometry x="-80" y="350" width="20" height="290" as="geometry" />
        </mxCell>
        <mxCell id="oSMGb4S1VwOe12NabHZr-34" value="UI" style="shape=umlLifeline;perimeter=lifelinePerimeter;whiteSpace=wrap;html=1;container=1;dropTarget=0;collapsible=0;recursiveResize=0;outlineConnect=0;portConstraint=eastwest;newEdgeStyle={&quot;curved&quot;:0,&quot;rounded&quot;:0};" vertex="1" parent="1">
          <mxGeometry x="70" y="350" width="100" height="290" as="geometry" />
        </mxCell>
        <mxCell id="oSMGb4S1VwOe12NabHZr-35" value="System" style="shape=umlLifeline;perimeter=lifelinePerimeter;whiteSpace=wrap;html=1;container=1;dropTarget=0;collapsible=0;recursiveResize=0;outlineConnect=0;portConstraint=eastwest;newEdgeStyle={&quot;curved&quot;:0,&quot;rounded&quot;:0};" vertex="1" parent="1">
          <mxGeometry x="310" y="350" width="100" height="290" as="geometry" />
        </mxCell>
        <mxCell id="oSMGb4S1VwOe12NabHZr-36" value="Database" style="shape=umlLifeline;perimeter=lifelinePerimeter;whiteSpace=wrap;html=1;container=1;dropTarget=0;collapsible=0;recursiveResize=0;outlineConnect=0;portConstraint=eastwest;newEdgeStyle={&quot;curved&quot;:0,&quot;rounded&quot;:0};" vertex="1" parent="1">
          <mxGeometry x="540" y="350" width="100" height="290" as="geometry" />
        </mxCell>
        <mxCell id="oSMGb4S1VwOe12NabHZr-37" value="Admin" style="text;html=1;align=center;verticalAlign=middle;resizable=0;points=[];autosize=1;strokeColor=none;fillColor=none;" vertex="1" parent="1">
          <mxGeometry x="-100" y="320" width="60" height="30" as="geometry" />
        </mxCell>
        <mxCell id="oSMGb4S1VwOe12NabHZr-38" value="" style="group" connectable="0" vertex="1" parent="1">
          <mxGeometry x="-50" y="390" width="160" height="40" as="geometry" />
        </mxCell>
        <mxCell id="oSMGb4S1VwOe12NabHZr-39" value="" style="endArrow=open;endFill=1;endSize=12;html=1;rounded=0;" edge="1" parent="oSMGb4S1VwOe12NabHZr-38">
          <mxGeometry width="160" relative="1" as="geometry">
            <mxPoint y="40" as="sourcePoint" />
            <mxPoint x="160" y="40" as="targetPoint" />
          </mxGeometry>
        </mxCell>
        <mxCell id="oSMGb4S1VwOe12NabHZr-40" value="Yêu cầu tương tác&lt;div&gt;dữ liệu&amp;nbsp;&lt;/div&gt;" style="text;html=1;align=center;verticalAlign=middle;resizable=0;points=[];autosize=1;strokeColor=none;fillColor=none;" vertex="1" parent="oSMGb4S1VwOe12NabHZr-38">
          <mxGeometry x="15" width="120" height="40" as="geometry" />
        </mxCell>
        <mxCell id="oSMGb4S1VwOe12NabHZr-41" value="" style="group" connectable="0" vertex="1" parent="1">
          <mxGeometry x="160" y="410" width="160" height="40" as="geometry" />
        </mxCell>
        <mxCell id="oSMGb4S1VwOe12NabHZr-42" value="" style="endArrow=open;endFill=1;endSize=12;html=1;rounded=0;" edge="1" parent="oSMGb4S1VwOe12NabHZr-41">
          <mxGeometry width="160" relative="1" as="geometry">
            <mxPoint y="40" as="sourcePoint" />
            <mxPoint x="160" y="40" as="targetPoint" />
          </mxGeometry>
        </mxCell>
        <mxCell id="oSMGb4S1VwOe12NabHZr-43" value="Gửi yêu cầu" style="text;html=1;align=center;verticalAlign=middle;resizable=0;points=[];autosize=1;strokeColor=none;fillColor=none;" vertex="1" parent="oSMGb4S1VwOe12NabHZr-41">
          <mxGeometry x="30" y="5" width="90" height="30" as="geometry" />
        </mxCell>
        <mxCell id="oSMGb4S1VwOe12NabHZr-44" value="" style="group" connectable="0" vertex="1" parent="1">
          <mxGeometry x="400" y="420" width="160" height="40" as="geometry" />
        </mxCell>
        <mxCell id="oSMGb4S1VwOe12NabHZr-45" value="" style="endArrow=open;endFill=1;endSize=12;html=1;rounded=0;" edge="1" parent="oSMGb4S1VwOe12NabHZr-44">
          <mxGeometry width="160" relative="1" as="geometry">
            <mxPoint y="40" as="sourcePoint" />
            <mxPoint x="160" y="40" as="targetPoint" />
          </mxGeometry>
        </mxCell>
        <mxCell id="oSMGb4S1VwOe12NabHZr-46" value="Kiểm tra điều kiện" style="text;html=1;align=center;verticalAlign=middle;resizable=0;points=[];autosize=1;strokeColor=none;fillColor=none;" vertex="1" parent="oSMGb4S1VwOe12NabHZr-44">
          <mxGeometry x="15" y="5" width="120" height="30" as="geometry" />
        </mxCell>
        <mxCell id="oSMGb4S1VwOe12NabHZr-47" value="" style="group" connectable="0" vertex="1" parent="1">
          <mxGeometry x="400" y="465" width="160" height="35" as="geometry" />
        </mxCell>
        <mxCell id="oSMGb4S1VwOe12NabHZr-48" value="" style="endArrow=open;endFill=1;endSize=12;html=1;rounded=0;" edge="1" parent="oSMGb4S1VwOe12NabHZr-47">
          <mxGeometry width="160" relative="1" as="geometry">
            <mxPoint x="160" y="32" as="sourcePoint" />
            <mxPoint y="32" as="targetPoint" />
          </mxGeometry>
        </mxCell>
        <mxCell id="oSMGb4S1VwOe12NabHZr-66" value="Thất bại" style="text;html=1;align=center;verticalAlign=middle;resizable=0;points=[];autosize=1;strokeColor=none;fillColor=none;" vertex="1" parent="oSMGb4S1VwOe12NabHZr-47">
          <mxGeometry x="45" y="5" width="70" height="30" as="geometry" />
        </mxCell>
        <mxCell id="oSMGb4S1VwOe12NabHZr-50" value="" style="group" connectable="0" vertex="1" parent="1">
          <mxGeometry x="160" y="480" width="160" height="35" as="geometry" />
        </mxCell>
        <mxCell id="oSMGb4S1VwOe12NabHZr-51" value="" style="endArrow=open;endFill=1;endSize=12;html=1;rounded=0;" edge="1" parent="oSMGb4S1VwOe12NabHZr-50">
          <mxGeometry width="160" relative="1" as="geometry">
            <mxPoint x="160" y="32" as="sourcePoint" />
            <mxPoint y="32" as="targetPoint" />
          </mxGeometry>
        </mxCell>
        <mxCell id="oSMGb4S1VwOe12NabHZr-69" value="Thông báo thất bại&amp;nbsp;" style="text;html=1;align=center;verticalAlign=middle;resizable=0;points=[];autosize=1;strokeColor=none;fillColor=none;" vertex="1" parent="oSMGb4S1VwOe12NabHZr-50">
          <mxGeometry x="15" width="130" height="30" as="geometry" />
        </mxCell>
        <mxCell id="oSMGb4S1VwOe12NabHZr-53" value="" style="group" connectable="0" vertex="1" parent="1">
          <mxGeometry x="-50" y="500" width="175" height="35" as="geometry" />
        </mxCell>
        <mxCell id="oSMGb4S1VwOe12NabHZr-54" value="" style="endArrow=open;endFill=1;endSize=12;html=1;rounded=0;" edge="1" parent="oSMGb4S1VwOe12NabHZr-53">
          <mxGeometry width="160" relative="1" as="geometry">
            <mxPoint x="160" y="32" as="sourcePoint" />
            <mxPoint y="32" as="targetPoint" />
          </mxGeometry>
        </mxCell>
        <mxCell id="oSMGb4S1VwOe12NabHZr-70" value="Hiển thị thông báo" style="text;html=1;align=center;verticalAlign=middle;resizable=0;points=[];autosize=1;strokeColor=none;fillColor=none;" vertex="1" parent="oSMGb4S1VwOe12NabHZr-53">
          <mxGeometry x="20" width="120" height="30" as="geometry" />
        </mxCell>
        <mxCell id="oSMGb4S1VwOe12NabHZr-57" value="" style="group" connectable="0" vertex="1" parent="1">
          <mxGeometry x="400" y="530" width="160" height="35" as="geometry" />
        </mxCell>
        <mxCell id="oSMGb4S1VwOe12NabHZr-58" value="" style="endArrow=open;endFill=1;endSize=12;html=1;rounded=0;" edge="1" parent="oSMGb4S1VwOe12NabHZr-57">
          <mxGeometry width="160" relative="1" as="geometry">
            <mxPoint x="160" y="32" as="sourcePoint" />
            <mxPoint y="32" as="targetPoint" />
          </mxGeometry>
        </mxCell>
        <mxCell id="oSMGb4S1VwOe12NabHZr-59" value="Trả về dữ liệu mới" style="text;html=1;align=center;verticalAlign=middle;resizable=0;points=[];autosize=1;strokeColor=none;fillColor=none;" vertex="1" parent="oSMGb4S1VwOe12NabHZr-57">
          <mxGeometry x="20" width="120" height="30" as="geometry" />
        </mxCell>
        <mxCell id="oSMGb4S1VwOe12NabHZr-60" value="" style="group" connectable="0" vertex="1" parent="1">
          <mxGeometry x="160" y="550" width="160" height="35" as="geometry" />
        </mxCell>
        <mxCell id="oSMGb4S1VwOe12NabHZr-61" value="" style="endArrow=open;endFill=1;endSize=12;html=1;rounded=0;" edge="1" parent="oSMGb4S1VwOe12NabHZr-60">
          <mxGeometry width="160" relative="1" as="geometry">
            <mxPoint x="160" y="32" as="sourcePoint" />
            <mxPoint y="32" as="targetPoint" />
          </mxGeometry>
        </mxCell>
        <mxCell id="oSMGb4S1VwOe12NabHZr-62" value="Cập nhật dữ liệu mới" style="text;html=1;align=center;verticalAlign=middle;resizable=0;points=[];autosize=1;strokeColor=none;fillColor=none;" vertex="1" parent="oSMGb4S1VwOe12NabHZr-60">
          <mxGeometry x="10" width="140" height="30" as="geometry" />
        </mxCell>
        <mxCell id="oSMGb4S1VwOe12NabHZr-63" value="" style="group" connectable="0" vertex="1" parent="1">
          <mxGeometry x="-50" y="570" width="160" height="35" as="geometry" />
        </mxCell>
        <mxCell id="oSMGb4S1VwOe12NabHZr-64" value="" style="endArrow=open;endFill=1;endSize=12;html=1;rounded=0;" edge="1" parent="oSMGb4S1VwOe12NabHZr-63">
          <mxGeometry width="160" relative="1" as="geometry">
            <mxPoint x="160" y="32" as="sourcePoint" />
            <mxPoint y="32" as="targetPoint" />
          </mxGeometry>
        </mxCell>
        <mxCell id="oSMGb4S1VwOe12NabHZr-65" value="Hiển thị dự liệu&amp;nbsp;&lt;div&gt;được cập nhật&lt;br&gt;&lt;/div&gt;" style="text;html=1;align=center;verticalAlign=middle;resizable=0;points=[];autosize=1;strokeColor=none;fillColor=none;" vertex="1" parent="oSMGb4S1VwOe12NabHZr-63">
          <mxGeometry x="25" y="-5" width="110" height="40" as="geometry" />
        </mxCell>
        <mxCell id="5_LWGSDWE5nEm61zRX_g-1" value="Điều kiện" style="shape=umlFrame;whiteSpace=wrap;html=1;pointerEvents=0;" vertex="1" parent="1">
          <mxGeometry x="-120" y="470" width="760" height="150" as="geometry" />
        </mxCell>
      </root>
    </mxGraphModel>
  </diagram>
  <diagram id="RozloEQJWt-34771cN4T" name="Data Flow">
    <mxGraphModel grid="1" page="1" gridSize="10" guides="1" tooltips="1" connect="1" arrows="1" fold="1" pageScale="1" pageWidth="850" pageHeight="1100" math="0" shadow="0">
      <root>
        <mxCell id="0" />
        <mxCell id="1" parent="0" />
        <mxCell id="NM6Mp6YTswKGNQjlYDxf-11" value="&lt;b&gt;0&lt;/b&gt;" style="swimlane;childLayout=stackLayout;horizontal=1;startSize=50;horizontalStack=0;rounded=1;fontSize=14;fontStyle=0;strokeWidth=2;resizeParent=0;resizeLast=1;shadow=0;dashed=0;align=center;arcSize=4;whiteSpace=wrap;html=1;verticalAlign=middle;" vertex="1" parent="1">
          <mxGeometry x="315" y="140" width="160" height="120" as="geometry">
            <mxRectangle x="490" y="120" width="50" height="50" as="alternateBounds" />
          </mxGeometry>
        </mxCell>
        <mxCell id="NM6Mp6YTswKGNQjlYDxf-12" value="&lt;b&gt;HỆ THỐNG&amp;nbsp;&lt;/b&gt;&lt;div&gt;&lt;b&gt;QUẢN LÍ BÁN HÀNG&lt;/b&gt;&lt;/div&gt;" style="align=center;strokeColor=none;fillColor=none;spacingLeft=4;fontSize=12;verticalAlign=middle;resizable=0;rotatable=0;part=1;html=1;" vertex="1" parent="NM6Mp6YTswKGNQjlYDxf-11">
          <mxGeometry y="50" width="160" height="70" as="geometry" />
        </mxCell>
        <mxCell id="2j5MLUx3cAEPVh8tvRs9-1" value="Admin&amp;nbsp;" style="rounded=0;whiteSpace=wrap;html=1;" vertex="1" parent="1">
          <mxGeometry x="80" y="160" width="120" height="60" as="geometry" />
        </mxCell>
      </root>
    </mxGraphModel>
  </diagram>
  <diagram id="XKKQFyD-ZbEGcQKZrAjq" name="ERD">
    <mxGraphModel grid="1" page="1" gridSize="10" guides="1" tooltips="1" connect="1" arrows="1" fold="1" pageScale="1" pageWidth="850" pageHeight="1100" math="0" shadow="0">
      <root>
        <mxCell id="0" />
        <mxCell id="1" parent="0" />
        <mxCell id="HXT9-TqjmRSbrpR3KHuF-1" value="phone" style="ellipse;whiteSpace=wrap;html=1;align=center;" vertex="1" parent="1">
          <mxGeometry x="1340" y="215" width="100" height="40" as="geometry" />
        </mxCell>
        <mxCell id="HXT9-TqjmRSbrpR3KHuF-2" value="permissions" style="ellipse;shape=doubleEllipse;margin=3;whiteSpace=wrap;html=1;align=center;" vertex="1" parent="1">
          <mxGeometry x="1750" y="180" width="100" height="40" as="geometry" />
        </mxCell>
        <mxCell id="HXT9-TqjmRSbrpR3KHuF-3" value="Warehouse" style="rounded=1;arcSize=10;whiteSpace=wrap;html=1;align=center;" vertex="1" parent="1">
          <mxGeometry x="-790" y="460" width="100" height="40" as="geometry" />
        </mxCell>
        <mxCell id="HXT9-TqjmRSbrpR3KHuF-4" value="belong to" style="shape=rhombus;perimeter=rhombusPerimeter;whiteSpace=wrap;html=1;align=center;" vertex="1" parent="1">
          <mxGeometry x="490" y="410" width="120" height="60" as="geometry" />
        </mxCell>
        <mxCell id="HXT9-TqjmRSbrpR3KHuF-5" value="orderTime" style="ellipse;whiteSpace=wrap;html=1;align=center;" vertex="1" parent="1">
          <mxGeometry x="460" y="250" width="100" height="40" as="geometry" />
        </mxCell>
        <mxCell id="HXT9-TqjmRSbrpR3KHuF-6" value="orderID" style="ellipse;whiteSpace=wrap;html=1;align=center;fontStyle=4;" vertex="1" parent="1">
          <mxGeometry x="-10" y="255" width="100" height="40" as="geometry" />
        </mxCell>
        <mxCell id="HXT9-TqjmRSbrpR3KHuF-7" value="status" style="ellipse;whiteSpace=wrap;html=1;align=center;" vertex="1" parent="1">
          <mxGeometry x="200" y="200" width="100" height="40" as="geometry" />
        </mxCell>
        <mxCell id="HXT9-TqjmRSbrpR3KHuF-8" value="address" style="ellipse;whiteSpace=wrap;html=1;align=center;" vertex="1" parent="1">
          <mxGeometry x="60" y="210" width="100" height="40" as="geometry" />
        </mxCell>
        <mxCell id="HXT9-TqjmRSbrpR3KHuF-9" value="totalAmount" style="ellipse;whiteSpace=wrap;html=1;align=center;" vertex="1" parent="1">
          <mxGeometry x="310" y="210" width="100" height="40" as="geometry" />
        </mxCell>
        <mxCell id="HXT9-TqjmRSbrpR3KHuF-10" value="" style="endArrow=none;html=1;rounded=0;exitX=0.5;exitY=1;exitDx=0;exitDy=0;entryX=0.133;entryY=0.048;entryDx=0;entryDy=0;entryPerimeter=0;" edge="1" parent="1" source="HXT9-TqjmRSbrpR3KHuF-6" target="HXT9-TqjmRSbrpR3KHuF-15">
          <mxGeometry relative="1" as="geometry">
            <mxPoint x="-180" y="350" as="sourcePoint" />
            <mxPoint x="-70" y="400" as="targetPoint" />
          </mxGeometry>
        </mxCell>
        <mxCell id="HXT9-TqjmRSbrpR3KHuF-11" value="" style="endArrow=none;html=1;rounded=0;exitX=0.5;exitY=1;exitDx=0;exitDy=0;entryX=1;entryY=0;entryDx=0;entryDy=0;" edge="1" parent="1" source="HXT9-TqjmRSbrpR3KHuF-5" target="HXT9-TqjmRSbrpR3KHuF-15">
          <mxGeometry relative="1" as="geometry">
            <mxPoint x="-40" y="340" as="sourcePoint" />
            <mxPoint x="-28" y="400" as="targetPoint" />
          </mxGeometry>
        </mxCell>
        <mxCell id="HXT9-TqjmRSbrpR3KHuF-12" value="" style="endArrow=none;html=1;rounded=0;exitX=0.5;exitY=1;exitDx=0;exitDy=0;" edge="1" parent="1" source="HXT9-TqjmRSbrpR3KHuF-8" target="HXT9-TqjmRSbrpR3KHuF-15">
          <mxGeometry relative="1" as="geometry">
            <mxPoint x="-170" y="430" as="sourcePoint" />
            <mxPoint x="-60" y="420" as="targetPoint" />
          </mxGeometry>
        </mxCell>
        <mxCell id="HXT9-TqjmRSbrpR3KHuF-13" value="" style="endArrow=none;html=1;rounded=0;exitX=0.5;exitY=1;exitDx=0;exitDy=0;" edge="1" parent="1" source="HXT9-TqjmRSbrpR3KHuF-7" target="HXT9-TqjmRSbrpR3KHuF-15">
          <mxGeometry relative="1" as="geometry">
            <mxPoint x="55" y="320" as="sourcePoint" />
            <mxPoint x="5" y="400" as="targetPoint" />
          </mxGeometry>
        </mxCell>
        <mxCell id="HXT9-TqjmRSbrpR3KHuF-14" value="" style="endArrow=none;html=1;rounded=0;entryX=0.5;entryY=1;entryDx=0;entryDy=0;" edge="1" parent="1" source="HXT9-TqjmRSbrpR3KHuF-15" target="HXT9-TqjmRSbrpR3KHuF-9">
          <mxGeometry relative="1" as="geometry">
            <mxPoint x="30" y="420" as="sourcePoint" />
            <mxPoint x="140" y="510" as="targetPoint" />
          </mxGeometry>
        </mxCell>
        <mxCell id="HXT9-TqjmRSbrpR3KHuF-15" value="Order" style="rounded=1;arcSize=10;whiteSpace=wrap;html=1;align=center;" vertex="1" parent="1">
          <mxGeometry x="270" y="380" width="100" height="40" as="geometry" />
        </mxCell>
        <mxCell id="HXT9-TqjmRSbrpR3KHuF-16" value="name" style="ellipse;whiteSpace=wrap;html=1;align=center;" vertex="1" parent="1">
          <mxGeometry x="840" y="290" width="100" height="40" as="geometry" />
        </mxCell>
        <mxCell id="HXT9-TqjmRSbrpR3KHuF-17" value="customerID" style="ellipse;whiteSpace=wrap;html=1;align=center;fontStyle=4;" vertex="1" parent="1">
          <mxGeometry x="610" y="295" width="100" height="40" as="geometry" />
        </mxCell>
        <mxCell id="HXT9-TqjmRSbrpR3KHuF-18" value="email" style="ellipse;whiteSpace=wrap;html=1;align=center;" vertex="1" parent="1">
          <mxGeometry x="770" y="490" width="100" height="40" as="geometry" />
        </mxCell>
        <mxCell id="HXT9-TqjmRSbrpR3KHuF-19" value="address" style="ellipse;whiteSpace=wrap;html=1;align=center;" vertex="1" parent="1">
          <mxGeometry x="640" y="500" width="100" height="40" as="geometry" />
        </mxCell>
        <mxCell id="HXT9-TqjmRSbrpR3KHuF-20" value="phone" style="ellipse;whiteSpace=wrap;html=1;align=center;" vertex="1" parent="1">
          <mxGeometry x="740" y="250" width="100" height="40" as="geometry" />
        </mxCell>
        <mxCell id="HXT9-TqjmRSbrpR3KHuF-21" value="" style="endArrow=none;html=1;rounded=0;exitX=1;exitY=0.5;exitDx=0;exitDy=0;entryX=0;entryY=0;entryDx=0;entryDy=0;" edge="1" parent="1" source="HXT9-TqjmRSbrpR3KHuF-17" target="HXT9-TqjmRSbrpR3KHuF-26">
          <mxGeometry relative="1" as="geometry">
            <mxPoint x="360" y="350" as="sourcePoint" />
            <mxPoint x="470" y="400" as="targetPoint" />
          </mxGeometry>
        </mxCell>
        <mxCell id="HXT9-TqjmRSbrpR3KHuF-22" value="" style="endArrow=none;html=1;rounded=0;exitX=0.5;exitY=1;exitDx=0;exitDy=0;entryX=0.5;entryY=0;entryDx=0;entryDy=0;" edge="1" parent="1" source="HXT9-TqjmRSbrpR3KHuF-16" target="HXT9-TqjmRSbrpR3KHuF-26">
          <mxGeometry relative="1" as="geometry">
            <mxPoint x="500" y="340" as="sourcePoint" />
            <mxPoint x="512" y="400" as="targetPoint" />
          </mxGeometry>
        </mxCell>
        <mxCell id="HXT9-TqjmRSbrpR3KHuF-23" value="" style="endArrow=none;html=1;rounded=0;exitX=0.5;exitY=0;exitDx=0;exitDy=0;" edge="1" parent="1" source="HXT9-TqjmRSbrpR3KHuF-19" target="HXT9-TqjmRSbrpR3KHuF-26">
          <mxGeometry relative="1" as="geometry">
            <mxPoint x="370" y="430" as="sourcePoint" />
            <mxPoint x="480" y="420" as="targetPoint" />
          </mxGeometry>
        </mxCell>
        <mxCell id="HXT9-TqjmRSbrpR3KHuF-24" value="" style="endArrow=none;html=1;rounded=0;exitX=0.5;exitY=0;exitDx=0;exitDy=0;" edge="1" parent="1" source="HXT9-TqjmRSbrpR3KHuF-18" target="HXT9-TqjmRSbrpR3KHuF-26">
          <mxGeometry relative="1" as="geometry">
            <mxPoint x="595" y="320" as="sourcePoint" />
            <mxPoint x="545" y="400" as="targetPoint" />
          </mxGeometry>
        </mxCell>
        <mxCell id="HXT9-TqjmRSbrpR3KHuF-25" value="" style="endArrow=none;html=1;rounded=0;entryX=0.5;entryY=1;entryDx=0;entryDy=0;" edge="1" parent="1" source="HXT9-TqjmRSbrpR3KHuF-26" target="HXT9-TqjmRSbrpR3KHuF-20">
          <mxGeometry relative="1" as="geometry">
            <mxPoint x="570" y="420" as="sourcePoint" />
            <mxPoint x="680" y="510" as="targetPoint" />
          </mxGeometry>
        </mxCell>
        <mxCell id="HXT9-TqjmRSbrpR3KHuF-26" value="Customer" style="rounded=1;arcSize=10;whiteSpace=wrap;html=1;align=center;" vertex="1" parent="1">
          <mxGeometry x="770" y="370" width="100" height="40" as="geometry" />
        </mxCell>
        <mxCell id="HXT9-TqjmRSbrpR3KHuF-27" value="price" style="ellipse;whiteSpace=wrap;html=1;align=center;" vertex="1" parent="1">
          <mxGeometry x="-500" y="300" width="100" height="40" as="geometry" />
        </mxCell>
        <mxCell id="HXT9-TqjmRSbrpR3KHuF-28" value="" style="endArrow=none;html=1;rounded=0;exitX=0.5;exitY=1;exitDx=0;exitDy=0;" edge="1" parent="1" source="HXT9-TqjmRSbrpR3KHuF-27" target="HXT9-TqjmRSbrpR3KHuF-37">
          <mxGeometry relative="1" as="geometry">
            <mxPoint x="-405" y="310" as="sourcePoint" />
            <mxPoint x="-455" y="390" as="targetPoint" />
          </mxGeometry>
        </mxCell>
        <mxCell id="HXT9-TqjmRSbrpR3KHuF-29" value="productName" style="ellipse;whiteSpace=wrap;html=1;align=center;" vertex="1" parent="1">
          <mxGeometry x="-400" y="270" width="100" height="40" as="geometry" />
        </mxCell>
        <mxCell id="HXT9-TqjmRSbrpR3KHuF-30" value="productID" style="ellipse;whiteSpace=wrap;html=1;align=center;fontStyle=4;" vertex="1" parent="1">
          <mxGeometry x="-590" y="340" width="100" height="40" as="geometry" />
        </mxCell>
        <mxCell id="HXT9-TqjmRSbrpR3KHuF-31" value="description" style="ellipse;whiteSpace=wrap;html=1;align=center;" vertex="1" parent="1">
          <mxGeometry x="-280" y="250" width="100" height="40" as="geometry" />
        </mxCell>
        <mxCell id="HXT9-TqjmRSbrpR3KHuF-32" value="quantity" style="ellipse;whiteSpace=wrap;html=1;align=center;" vertex="1" parent="1">
          <mxGeometry x="-180" y="290" width="100" height="40" as="geometry" />
        </mxCell>
        <mxCell id="HXT9-TqjmRSbrpR3KHuF-33" value="" style="endArrow=none;html=1;rounded=0;exitX=0.5;exitY=1;exitDx=0;exitDy=0;entryX=0;entryY=0;entryDx=0;entryDy=0;" edge="1" parent="1" source="HXT9-TqjmRSbrpR3KHuF-30" target="HXT9-TqjmRSbrpR3KHuF-37">
          <mxGeometry relative="1" as="geometry">
            <mxPoint x="-790" y="510" as="sourcePoint" />
            <mxPoint x="-560" y="350" as="targetPoint" />
          </mxGeometry>
        </mxCell>
        <mxCell id="HXT9-TqjmRSbrpR3KHuF-34" value="" style="endArrow=none;html=1;rounded=0;entryX=0.5;entryY=0;entryDx=0;entryDy=0;exitX=0.5;exitY=1;exitDx=0;exitDy=0;" edge="1" parent="1" source="HXT9-TqjmRSbrpR3KHuF-29" target="HXT9-TqjmRSbrpR3KHuF-37">
          <mxGeometry relative="1" as="geometry">
            <mxPoint x="-480" y="560" as="sourcePoint" />
            <mxPoint x="-518" y="350" as="targetPoint" />
          </mxGeometry>
        </mxCell>
        <mxCell id="HXT9-TqjmRSbrpR3KHuF-35" value="" style="endArrow=none;html=1;rounded=0;exitX=0.5;exitY=1;exitDx=0;exitDy=0;" edge="1" parent="1" source="HXT9-TqjmRSbrpR3KHuF-31" target="HXT9-TqjmRSbrpR3KHuF-37">
          <mxGeometry relative="1" as="geometry">
            <mxPoint x="-660" y="380" as="sourcePoint" />
            <mxPoint x="-550" y="370" as="targetPoint" />
          </mxGeometry>
        </mxCell>
        <mxCell id="HXT9-TqjmRSbrpR3KHuF-36" value="" style="endArrow=none;html=1;rounded=0;entryX=0.5;entryY=1;entryDx=0;entryDy=0;exitX=1;exitY=0;exitDx=0;exitDy=0;" edge="1" parent="1" source="HXT9-TqjmRSbrpR3KHuF-37" target="HXT9-TqjmRSbrpR3KHuF-32">
          <mxGeometry relative="1" as="geometry">
            <mxPoint x="-460" y="370" as="sourcePoint" />
            <mxPoint x="-430" y="275" as="targetPoint" />
          </mxGeometry>
        </mxCell>
        <mxCell id="HXT9-TqjmRSbrpR3KHuF-37" value="Product" style="rounded=1;arcSize=10;whiteSpace=wrap;html=1;align=center;" vertex="1" parent="1">
          <mxGeometry x="-280" y="395" width="100" height="40" as="geometry" />
        </mxCell>
        <mxCell id="HXT9-TqjmRSbrpR3KHuF-38" value="OrderProduct" style="shape=associativeEntity;whiteSpace=wrap;html=1;align=center;" vertex="1" parent="1">
          <mxGeometry x="-70" y="385" width="140" height="60" as="geometry" />
        </mxCell>
        <mxCell id="HXT9-TqjmRSbrpR3KHuF-39" value="userName" style="ellipse;whiteSpace=wrap;html=1;align=center;" vertex="1" parent="1">
          <mxGeometry x="1100" y="180" width="100" height="40" as="geometry" />
        </mxCell>
        <mxCell id="HXT9-TqjmRSbrpR3KHuF-40" value="userID" style="ellipse;whiteSpace=wrap;html=1;align=center;fontStyle=4;" vertex="1" parent="1">
          <mxGeometry x="980" y="260" width="100" height="40" as="geometry" />
        </mxCell>
        <mxCell id="HXT9-TqjmRSbrpR3KHuF-41" value="password" style="ellipse;whiteSpace=wrap;html=1;align=center;" vertex="1" parent="1">
          <mxGeometry x="1230" y="170" width="100" height="40" as="geometry" />
        </mxCell>
        <mxCell id="HXT9-TqjmRSbrpR3KHuF-42" value="email" style="ellipse;whiteSpace=wrap;html=1;align=center;" vertex="1" parent="1">
          <mxGeometry x="1010" y="200" width="100" height="40" as="geometry" />
        </mxCell>
        <mxCell id="HXT9-TqjmRSbrpR3KHuF-43" value="" style="endArrow=none;html=1;rounded=0;exitX=1;exitY=0.5;exitDx=0;exitDy=0;entryX=0;entryY=0;entryDx=0;entryDy=0;" edge="1" parent="1" source="HXT9-TqjmRSbrpR3KHuF-40" target="HXT9-TqjmRSbrpR3KHuF-48">
          <mxGeometry relative="1" as="geometry">
            <mxPoint x="970" y="300" as="sourcePoint" />
            <mxPoint x="1080" y="350" as="targetPoint" />
          </mxGeometry>
        </mxCell>
        <mxCell id="HXT9-TqjmRSbrpR3KHuF-44" value="" style="endArrow=none;html=1;rounded=0;exitX=0.5;exitY=1;exitDx=0;exitDy=0;entryX=0.5;entryY=0;entryDx=0;entryDy=0;" edge="1" parent="1" source="HXT9-TqjmRSbrpR3KHuF-39" target="HXT9-TqjmRSbrpR3KHuF-48">
          <mxGeometry relative="1" as="geometry">
            <mxPoint x="1080.0000000000005" y="250" as="sourcePoint" />
            <mxPoint x="1122" y="350" as="targetPoint" />
          </mxGeometry>
        </mxCell>
        <mxCell id="HXT9-TqjmRSbrpR3KHuF-45" value="" style="endArrow=none;html=1;rounded=0;exitX=0.5;exitY=1;exitDx=0;exitDy=0;entryX=0.25;entryY=0;entryDx=0;entryDy=0;" edge="1" parent="1" source="HXT9-TqjmRSbrpR3KHuF-42" target="HXT9-TqjmRSbrpR3KHuF-48">
          <mxGeometry relative="1" as="geometry">
            <mxPoint x="980" y="380" as="sourcePoint" />
            <mxPoint x="1090" y="370" as="targetPoint" />
          </mxGeometry>
        </mxCell>
        <mxCell id="HXT9-TqjmRSbrpR3KHuF-46" value="" style="endArrow=none;html=1;rounded=0;exitX=0.5;exitY=1;exitDx=0;exitDy=0;" edge="1" parent="1" source="HXT9-TqjmRSbrpR3KHuF-41" target="HXT9-TqjmRSbrpR3KHuF-48">
          <mxGeometry relative="1" as="geometry">
            <mxPoint x="1190.0000000000005" y="250" as="sourcePoint" />
            <mxPoint x="1155" y="350" as="targetPoint" />
          </mxGeometry>
        </mxCell>
        <mxCell id="HXT9-TqjmRSbrpR3KHuF-47" value="" style="endArrow=none;html=1;rounded=0;entryX=0;entryY=0.5;entryDx=0;entryDy=0;" edge="1" parent="1" source="HXT9-TqjmRSbrpR3KHuF-48" target="HXT9-TqjmRSbrpR3KHuF-1">
          <mxGeometry relative="1" as="geometry">
            <mxPoint x="1180" y="370" as="sourcePoint" />
            <mxPoint x="1290" y="460" as="targetPoint" />
          </mxGeometry>
        </mxCell>
        <mxCell id="HXT9-TqjmRSbrpR3KHuF-48" value="User" style="rounded=1;arcSize=10;whiteSpace=wrap;html=1;align=center;" vertex="1" parent="1">
          <mxGeometry x="1220" y="320" width="100" height="40" as="geometry" />
        </mxCell>
        <mxCell id="HXT9-TqjmRSbrpR3KHuF-49" value="roleID" style="ellipse;whiteSpace=wrap;html=1;align=center;fontStyle=4;" vertex="1" parent="1">
          <mxGeometry x="1610" y="130" width="100" height="40" as="geometry" />
        </mxCell>
        <mxCell id="HXT9-TqjmRSbrpR3KHuF-50" value="roleName" style="ellipse;whiteSpace=wrap;html=1;align=center;" vertex="1" parent="1">
          <mxGeometry x="1510" y="140" width="100" height="40" as="geometry" />
        </mxCell>
        <mxCell id="HXT9-TqjmRSbrpR3KHuF-51" value="" style="endArrow=none;html=1;rounded=0;exitX=0.5;exitY=1;exitDx=0;exitDy=0;entryX=0.5;entryY=0;entryDx=0;entryDy=0;" edge="1" parent="1" source="HXT9-TqjmRSbrpR3KHuF-49" target="HXT9-TqjmRSbrpR3KHuF-54">
          <mxGeometry relative="1" as="geometry">
            <mxPoint x="1500" y="320" as="sourcePoint" />
            <mxPoint x="1660" y="350" as="targetPoint" />
          </mxGeometry>
        </mxCell>
        <mxCell id="HXT9-TqjmRSbrpR3KHuF-52" value="" style="endArrow=none;html=1;rounded=0;exitX=0;exitY=0.5;exitDx=0;exitDy=0;entryX=1;entryY=0.5;entryDx=0;entryDy=0;" edge="1" parent="1" source="HXT9-TqjmRSbrpR3KHuF-2" target="HXT9-TqjmRSbrpR3KHuF-54">
          <mxGeometry relative="1" as="geometry">
            <mxPoint x="1640" y="310" as="sourcePoint" />
            <mxPoint x="1652" y="370" as="targetPoint" />
          </mxGeometry>
        </mxCell>
        <mxCell id="HXT9-TqjmRSbrpR3KHuF-53" value="" style="endArrow=none;html=1;rounded=0;exitX=0.5;exitY=1;exitDx=0;exitDy=0;entryX=0;entryY=0;entryDx=0;entryDy=0;" edge="1" parent="1" source="HXT9-TqjmRSbrpR3KHuF-50" target="HXT9-TqjmRSbrpR3KHuF-54">
          <mxGeometry relative="1" as="geometry">
            <mxPoint x="1510" y="400" as="sourcePoint" />
            <mxPoint x="1620" y="390" as="targetPoint" />
          </mxGeometry>
        </mxCell>
        <mxCell id="HXT9-TqjmRSbrpR3KHuF-54" value="UserRole" style="rounded=1;arcSize=10;whiteSpace=wrap;html=1;align=center;" vertex="1" parent="1">
          <mxGeometry x="1600" y="200" width="100" height="40" as="geometry" />
        </mxCell>
        <mxCell id="HXT9-TqjmRSbrpR3KHuF-55" value="" style="edgeStyle=entityRelationEdgeStyle;fontSize=12;html=1;endArrow=ERzeroToMany;endFill=1;rounded=0;entryX=1;entryY=0.5;entryDx=0;entryDy=0;exitX=0;exitY=0.5;exitDx=0;exitDy=0;" edge="1" parent="1" source="HXT9-TqjmRSbrpR3KHuF-57" target="HXT9-TqjmRSbrpR3KHuF-48">
          <mxGeometry width="100" height="100" relative="1" as="geometry">
            <mxPoint x="1340" y="370" as="sourcePoint" />
            <mxPoint x="1520" y="340" as="targetPoint" />
          </mxGeometry>
        </mxCell>
        <mxCell id="HXT9-TqjmRSbrpR3KHuF-56" value="" style="edgeStyle=entityRelationEdgeStyle;fontSize=12;html=1;endArrow=ERmandOne;rounded=0;entryX=0;entryY=0.5;entryDx=0;entryDy=0;exitX=1;exitY=0.5;exitDx=0;exitDy=0;" edge="1" parent="1" source="HXT9-TqjmRSbrpR3KHuF-57" target="HXT9-TqjmRSbrpR3KHuF-54">
          <mxGeometry width="100" height="100" relative="1" as="geometry">
            <mxPoint x="1460" y="370" as="sourcePoint" />
            <mxPoint x="1520" y="340" as="targetPoint" />
          </mxGeometry>
        </mxCell>
        <mxCell id="HXT9-TqjmRSbrpR3KHuF-57" value="has" style="shape=rhombus;perimeter=rhombusPerimeter;whiteSpace=wrap;html=1;align=center;" vertex="1" parent="1">
          <mxGeometry x="1420" y="270" width="120" height="60" as="geometry" />
        </mxCell>
        <mxCell id="HXT9-TqjmRSbrpR3KHuF-58" value="" style="edgeStyle=entityRelationEdgeStyle;fontSize=12;html=1;endArrow=ERmandOne;rounded=0;exitX=1;exitY=0.5;exitDx=0;exitDy=0;entryX=0;entryY=0.5;entryDx=0;entryDy=0;" edge="1" parent="1" source="HXT9-TqjmRSbrpR3KHuF-4" target="HXT9-TqjmRSbrpR3KHuF-26">
          <mxGeometry width="100" height="100" relative="1" as="geometry">
            <mxPoint x="380" y="370" as="sourcePoint" />
            <mxPoint x="480" y="270" as="targetPoint" />
          </mxGeometry>
        </mxCell>
        <mxCell id="HXT9-TqjmRSbrpR3KHuF-59" value="" style="edgeStyle=entityRelationEdgeStyle;fontSize=12;html=1;endArrow=ERmandOne;rounded=0;entryX=1;entryY=0.5;entryDx=0;entryDy=0;exitX=0;exitY=0.5;exitDx=0;exitDy=0;" edge="1" parent="1" source="HXT9-TqjmRSbrpR3KHuF-4" target="HXT9-TqjmRSbrpR3KHuF-15">
          <mxGeometry width="100" height="100" relative="1" as="geometry">
            <mxPoint x="380" y="370" as="sourcePoint" />
            <mxPoint x="480" y="270" as="targetPoint" />
          </mxGeometry>
        </mxCell>
        <mxCell id="HXT9-TqjmRSbrpR3KHuF-60" value="" style="edgeStyle=entityRelationEdgeStyle;fontSize=12;html=1;endArrow=ERoneToMany;rounded=0;entryX=1;entryY=0.75;entryDx=0;entryDy=0;exitX=0;exitY=0.5;exitDx=0;exitDy=0;" edge="1" parent="1" source="HXT9-TqjmRSbrpR3KHuF-38" target="HXT9-TqjmRSbrpR3KHuF-37">
          <mxGeometry width="100" height="100" relative="1" as="geometry">
            <mxPoint x="-380" y="650" as="sourcePoint" />
            <mxPoint x="-250" y="630" as="targetPoint" />
            <Array as="points">
              <mxPoint x="-270" y="815" />
              <mxPoint x="-290" y="665" />
            </Array>
          </mxGeometry>
        </mxCell>
        <mxCell id="HXT9-TqjmRSbrpR3KHuF-61" value="" style="edgeStyle=entityRelationEdgeStyle;fontSize=12;html=1;endArrow=ERoneToMany;rounded=0;entryX=0;entryY=0.25;entryDx=0;entryDy=0;exitX=1;exitY=0.5;exitDx=0;exitDy=0;" edge="1" parent="1" source="HXT9-TqjmRSbrpR3KHuF-38" target="HXT9-TqjmRSbrpR3KHuF-15">
          <mxGeometry width="100" height="100" relative="1" as="geometry">
            <mxPoint x="-130" y="640" as="sourcePoint" />
            <mxPoint x="-30" y="540" as="targetPoint" />
          </mxGeometry>
        </mxCell>
        <mxCell id="HXT9-TqjmRSbrpR3KHuF-62" value="associated" style="shape=rhombus;perimeter=rhombusPerimeter;whiteSpace=wrap;html=1;align=center;" vertex="1" parent="1">
          <mxGeometry x="130" y="470" width="120" height="60" as="geometry" />
        </mxCell>
        <mxCell id="HXT9-TqjmRSbrpR3KHuF-63" value="" style="edgeStyle=entityRelationEdgeStyle;fontSize=12;html=1;endArrow=ERmandOne;rounded=0;entryX=0;entryY=0.5;entryDx=0;entryDy=0;exitX=0.5;exitY=0;exitDx=0;exitDy=0;" edge="1" parent="1" source="HXT9-TqjmRSbrpR3KHuF-62" target="HXT9-TqjmRSbrpR3KHuF-15">
          <mxGeometry width="100" height="100" relative="1" as="geometry">
            <mxPoint x="-250" y="500" as="sourcePoint" />
            <mxPoint x="-150" y="400" as="targetPoint" />
          </mxGeometry>
        </mxCell>
        <mxCell id="HXT9-TqjmRSbrpR3KHuF-64" value="totalAmount" style="ellipse;whiteSpace=wrap;html=1;align=center;container=0;" vertex="1" parent="1">
          <mxGeometry x="470" y="640" width="100" height="40" as="geometry" />
        </mxCell>
        <mxCell id="HXT9-TqjmRSbrpR3KHuF-65" value="invoiceID" style="ellipse;whiteSpace=wrap;html=1;align=center;fontStyle=4;container=0;" vertex="1" parent="1">
          <mxGeometry x="390" y="480" width="100" height="40" as="geometry" />
        </mxCell>
        <mxCell id="HXT9-TqjmRSbrpR3KHuF-66" value="paymentStatus" style="ellipse;whiteSpace=wrap;html=1;align=center;container=0;" vertex="1" parent="1">
          <mxGeometry x="500" y="560" width="100" height="40" as="geometry" />
        </mxCell>
        <mxCell id="HXT9-TqjmRSbrpR3KHuF-67" value="invoiceTime" style="ellipse;whiteSpace=wrap;html=1;align=center;container=0;" vertex="1" parent="1">
          <mxGeometry x="280" y="670" width="100" height="40" as="geometry" />
        </mxCell>
        <mxCell id="HXT9-TqjmRSbrpR3KHuF-68" value="" style="endArrow=none;html=1;rounded=0;exitX=0.5;exitY=1;exitDx=0;exitDy=0;entryX=0.5;entryY=0;entryDx=0;entryDy=0;" edge="1" parent="1" source="HXT9-TqjmRSbrpR3KHuF-65" target="HXT9-TqjmRSbrpR3KHuF-72">
          <mxGeometry relative="1" as="geometry">
            <mxPoint y="630" as="sourcePoint" />
            <mxPoint x="110" y="680" as="targetPoint" />
          </mxGeometry>
        </mxCell>
        <mxCell id="HXT9-TqjmRSbrpR3KHuF-69" value="" style="endArrow=none;html=1;rounded=0;exitX=0.5;exitY=0;exitDx=0;exitDy=0;entryX=0.5;entryY=0;entryDx=0;entryDy=0;" edge="1" parent="1" source="HXT9-TqjmRSbrpR3KHuF-64" target="HXT9-TqjmRSbrpR3KHuF-72">
          <mxGeometry relative="1" as="geometry">
            <mxPoint x="140" y="620" as="sourcePoint" />
            <mxPoint x="152" y="680" as="targetPoint" />
          </mxGeometry>
        </mxCell>
        <mxCell id="HXT9-TqjmRSbrpR3KHuF-70" value="" style="endArrow=none;html=1;rounded=0;exitX=0.5;exitY=0;exitDx=0;exitDy=0;" edge="1" parent="1" source="HXT9-TqjmRSbrpR3KHuF-67" target="HXT9-TqjmRSbrpR3KHuF-72">
          <mxGeometry relative="1" as="geometry">
            <mxPoint x="230.00000000000045" y="770" as="sourcePoint" />
            <mxPoint x="120" y="700" as="targetPoint" />
          </mxGeometry>
        </mxCell>
        <mxCell id="HXT9-TqjmRSbrpR3KHuF-71" value="" style="endArrow=none;html=1;rounded=0;exitX=0;exitY=0.5;exitDx=0;exitDy=0;" edge="1" parent="1" source="HXT9-TqjmRSbrpR3KHuF-66" target="HXT9-TqjmRSbrpR3KHuF-72">
          <mxGeometry relative="1" as="geometry">
            <mxPoint x="235" y="600" as="sourcePoint" />
            <mxPoint x="185" y="680" as="targetPoint" />
          </mxGeometry>
        </mxCell>
        <mxCell id="HXT9-TqjmRSbrpR3KHuF-72" value="Invoice" style="rounded=1;arcSize=10;whiteSpace=wrap;html=1;align=center;container=0;" vertex="1" parent="1">
          <mxGeometry x="310" y="590" width="100" height="40" as="geometry" />
        </mxCell>
        <mxCell id="HXT9-TqjmRSbrpR3KHuF-73" value="" style="edgeStyle=entityRelationEdgeStyle;fontSize=12;html=1;endArrow=ERmandOne;rounded=0;entryX=0;entryY=0.25;entryDx=0;entryDy=0;exitX=1;exitY=0.5;exitDx=0;exitDy=0;" edge="1" parent="1" source="HXT9-TqjmRSbrpR3KHuF-62" target="HXT9-TqjmRSbrpR3KHuF-72">
          <mxGeometry width="100" height="100" relative="1" as="geometry">
            <mxPoint x="-330" y="500" as="sourcePoint" />
            <mxPoint x="-230" y="400" as="targetPoint" />
          </mxGeometry>
        </mxCell>
        <mxCell id="HXT9-TqjmRSbrpR3KHuF-74" value="has" style="shape=rhombus;perimeter=rhombusPerimeter;whiteSpace=wrap;html=1;align=center;" vertex="1" parent="1">
          <mxGeometry x="-630" y="400" width="120" height="60" as="geometry" />
        </mxCell>
        <mxCell id="HXT9-TqjmRSbrpR3KHuF-75" value="" style="edgeStyle=entityRelationEdgeStyle;fontSize=12;html=1;endArrow=ERzeroToMany;endFill=1;rounded=0;entryX=0;entryY=0.25;entryDx=0;entryDy=0;exitX=1;exitY=0.5;exitDx=0;exitDy=0;" edge="1" parent="1" source="HXT9-TqjmRSbrpR3KHuF-74" target="HXT9-TqjmRSbrpR3KHuF-37">
          <mxGeometry width="100" height="100" relative="1" as="geometry">
            <mxPoint x="-690" y="470" as="sourcePoint" />
            <mxPoint x="-590" y="370" as="targetPoint" />
          </mxGeometry>
        </mxCell>
        <mxCell id="HXT9-TqjmRSbrpR3KHuF-76" value="" style="edgeStyle=entityRelationEdgeStyle;fontSize=12;html=1;endArrow=ERmandOne;rounded=0;entryX=1;entryY=0.5;entryDx=0;entryDy=0;exitX=0;exitY=0.5;exitDx=0;exitDy=0;" edge="1" parent="1" source="HXT9-TqjmRSbrpR3KHuF-74" target="HXT9-TqjmRSbrpR3KHuF-3">
          <mxGeometry width="100" height="100" relative="1" as="geometry">
            <mxPoint x="-1100" y="610" as="sourcePoint" />
            <mxPoint x="-1000" y="510" as="targetPoint" />
          </mxGeometry>
        </mxCell>
        <mxCell id="HXT9-TqjmRSbrpR3KHuF-77" value="startTime" style="ellipse;whiteSpace=wrap;html=1;align=center;" vertex="1" parent="1">
          <mxGeometry x="-220" y="760" width="100" height="40" as="geometry" />
        </mxCell>
        <mxCell id="HXT9-TqjmRSbrpR3KHuF-78" value="promotionID" style="ellipse;whiteSpace=wrap;html=1;align=center;fontStyle=4;" vertex="1" parent="1">
          <mxGeometry x="-260" y="540" width="100" height="40" as="geometry" />
        </mxCell>
        <mxCell id="HXT9-TqjmRSbrpR3KHuF-79" value="endTime" style="ellipse;whiteSpace=wrap;html=1;align=center;" vertex="1" parent="1">
          <mxGeometry x="-100" y="570" width="100" height="40" as="geometry" />
        </mxCell>
        <mxCell id="HXT9-TqjmRSbrpR3KHuF-80" value="discount" style="ellipse;whiteSpace=wrap;html=1;align=center;" vertex="1" parent="1">
          <mxGeometry x="-10" y="640" width="100" height="40" as="geometry" />
        </mxCell>
        <mxCell id="HXT9-TqjmRSbrpR3KHuF-81" value="" style="endArrow=none;html=1;rounded=0;exitX=0.5;exitY=1;exitDx=0;exitDy=0;entryX=0.5;entryY=0;entryDx=0;entryDy=0;" edge="1" parent="1" source="HXT9-TqjmRSbrpR3KHuF-78" target="HXT9-TqjmRSbrpR3KHuF-85">
          <mxGeometry relative="1" as="geometry">
            <mxPoint x="-910" y="760" as="sourcePoint" />
            <mxPoint x="-800" y="810" as="targetPoint" />
          </mxGeometry>
        </mxCell>
        <mxCell id="HXT9-TqjmRSbrpR3KHuF-82" value="" style="endArrow=none;html=1;rounded=0;exitX=0.5;exitY=0;exitDx=0;exitDy=0;entryX=0.5;entryY=0;entryDx=0;entryDy=0;" edge="1" parent="1" source="HXT9-TqjmRSbrpR3KHuF-77" target="HXT9-TqjmRSbrpR3KHuF-85">
          <mxGeometry relative="1" as="geometry">
            <mxPoint x="-770" y="750" as="sourcePoint" />
            <mxPoint x="-758" y="810" as="targetPoint" />
          </mxGeometry>
        </mxCell>
        <mxCell id="HXT9-TqjmRSbrpR3KHuF-83" value="" style="endArrow=none;html=1;rounded=0;exitX=0;exitY=0.5;exitDx=0;exitDy=0;" edge="1" parent="1" source="HXT9-TqjmRSbrpR3KHuF-80" target="HXT9-TqjmRSbrpR3KHuF-85">
          <mxGeometry relative="1" as="geometry">
            <mxPoint x="-900" y="840" as="sourcePoint" />
            <mxPoint x="-790" y="830" as="targetPoint" />
          </mxGeometry>
        </mxCell>
        <mxCell id="HXT9-TqjmRSbrpR3KHuF-84" value="" style="endArrow=none;html=1;rounded=0;exitX=0.5;exitY=1;exitDx=0;exitDy=0;" edge="1" parent="1" source="HXT9-TqjmRSbrpR3KHuF-79" target="HXT9-TqjmRSbrpR3KHuF-85">
          <mxGeometry relative="1" as="geometry">
            <mxPoint x="-675" y="730" as="sourcePoint" />
            <mxPoint x="-725" y="810" as="targetPoint" />
          </mxGeometry>
        </mxCell>
        <mxCell id="HXT9-TqjmRSbrpR3KHuF-85" value="Promotion" style="rounded=1;arcSize=10;whiteSpace=wrap;html=1;align=center;" vertex="1" parent="1">
          <mxGeometry x="-300" y="680" width="100" height="40" as="geometry" />
        </mxCell>
        <mxCell id="HXT9-TqjmRSbrpR3KHuF-86" value="applies to" style="shape=rhombus;perimeter=rhombusPerimeter;whiteSpace=wrap;html=1;align=center;" vertex="1" parent="1">
          <mxGeometry x="-420" y="510" width="120" height="60" as="geometry" />
        </mxCell>
        <mxCell id="HXT9-TqjmRSbrpR3KHuF-87" value="" style="edgeStyle=entityRelationEdgeStyle;fontSize=12;html=1;endArrow=ERzeroToMany;endFill=1;rounded=0;exitX=0.5;exitY=1;exitDx=0;exitDy=0;entryX=0;entryY=0.5;entryDx=0;entryDy=0;" edge="1" parent="1" source="HXT9-TqjmRSbrpR3KHuF-86" target="HXT9-TqjmRSbrpR3KHuF-85">
          <mxGeometry width="100" height="100" relative="1" as="geometry">
            <mxPoint x="-410" y="650" as="sourcePoint" />
            <mxPoint x="-390" y="690" as="targetPoint" />
          </mxGeometry>
        </mxCell>
        <mxCell id="HXT9-TqjmRSbrpR3KHuF-88" value="" style="edgeStyle=entityRelationEdgeStyle;fontSize=12;html=1;endArrow=ERmandOne;rounded=0;entryX=0;entryY=0.75;entryDx=0;entryDy=0;exitX=0.5;exitY=0;exitDx=0;exitDy=0;" edge="1" parent="1" source="HXT9-TqjmRSbrpR3KHuF-86" target="HXT9-TqjmRSbrpR3KHuF-37">
          <mxGeometry width="100" height="100" relative="1" as="geometry">
            <mxPoint x="-620" y="650" as="sourcePoint" />
            <mxPoint x="-520" y="550" as="targetPoint" />
          </mxGeometry>
        </mxCell>
        <mxCell id="HXT9-TqjmRSbrpR3KHuF-89" value="location" style="ellipse;whiteSpace=wrap;html=1;align=center;" vertex="1" parent="1">
          <mxGeometry x="-620" y="560" width="100" height="40" as="geometry" />
        </mxCell>
        <mxCell id="HXT9-TqjmRSbrpR3KHuF-90" value="warehouseID" style="ellipse;whiteSpace=wrap;html=1;align=center;fontStyle=4;" vertex="1" parent="1">
          <mxGeometry x="-760" y="580" width="100" height="40" as="geometry" />
        </mxCell>
        <mxCell id="HXT9-TqjmRSbrpR3KHuF-91" value="" style="endArrow=none;html=1;rounded=0;exitX=0.5;exitY=0;exitDx=0;exitDy=0;entryX=0.5;entryY=1;entryDx=0;entryDy=0;" edge="1" parent="1" source="HXT9-TqjmRSbrpR3KHuF-90" target="HXT9-TqjmRSbrpR3KHuF-3">
          <mxGeometry relative="1" as="geometry">
            <mxPoint x="-1180" y="305" as="sourcePoint" />
            <mxPoint x="-750" y="510" as="targetPoint" />
          </mxGeometry>
        </mxCell>
        <mxCell id="HXT9-TqjmRSbrpR3KHuF-92" value="" style="endArrow=none;html=1;rounded=0;exitX=0.5;exitY=0;exitDx=0;exitDy=0;entryX=1;entryY=1;entryDx=0;entryDy=0;" edge="1" parent="1" source="HXT9-TqjmRSbrpR3KHuF-89" target="HXT9-TqjmRSbrpR3KHuF-3">
          <mxGeometry relative="1" as="geometry">
            <mxPoint x="-1040" y="295" as="sourcePoint" />
            <mxPoint x="-1028" y="355" as="targetPoint" />
          </mxGeometry>
        </mxCell>
        <mxCell id="HXT9-TqjmRSbrpR3KHuF-93" value="IEProduct" style="ellipse;whiteSpace=wrap;html=1;align=center;fontStyle=4;" vertex="1" parent="1">
          <mxGeometry x="-1290" y="230" width="100" height="40" as="geometry" />
        </mxCell>
        <mxCell id="HXT9-TqjmRSbrpR3KHuF-94" value="" style="endArrow=none;html=1;rounded=0;exitX=0.5;exitY=1;exitDx=0;exitDy=0;entryX=0;entryY=0;entryDx=0;entryDy=0;" edge="1" parent="1" source="HXT9-TqjmRSbrpR3KHuF-93" target="HXT9-TqjmRSbrpR3KHuF-97">
          <mxGeometry relative="1" as="geometry">
            <mxPoint x="-1630" y="320" as="sourcePoint" />
            <mxPoint x="-1520" y="370" as="targetPoint" />
          </mxGeometry>
        </mxCell>
        <mxCell id="HXT9-TqjmRSbrpR3KHuF-95" value="" style="endArrow=none;html=1;rounded=0;exitX=0.5;exitY=1;exitDx=0;exitDy=0;entryX=0.5;entryY=0;entryDx=0;entryDy=0;" edge="1" parent="1" source="HXT9-TqjmRSbrpR3KHuF-98" target="HXT9-TqjmRSbrpR3KHuF-97">
          <mxGeometry relative="1" as="geometry">
            <mxPoint x="-1490" y="310" as="sourcePoint" />
            <mxPoint x="-1478" y="370" as="targetPoint" />
          </mxGeometry>
        </mxCell>
        <mxCell id="HXT9-TqjmRSbrpR3KHuF-96" value="" style="endArrow=none;html=1;rounded=0;exitX=0.5;exitY=1;exitDx=0;exitDy=0;" edge="1" parent="1" source="HXT9-TqjmRSbrpR3KHuF-99" target="HXT9-TqjmRSbrpR3KHuF-97">
          <mxGeometry relative="1" as="geometry">
            <mxPoint x="-1360" y="280" as="sourcePoint" />
            <mxPoint x="-1445" y="370" as="targetPoint" />
          </mxGeometry>
        </mxCell>
        <mxCell id="HXT9-TqjmRSbrpR3KHuF-97" value="IEProduct" style="rounded=1;arcSize=10;whiteSpace=wrap;html=1;align=center;" vertex="1" parent="1">
          <mxGeometry x="-1150" y="320" width="100" height="40" as="geometry" />
        </mxCell>
        <mxCell id="HXT9-TqjmRSbrpR3KHuF-98" value="products" style="ellipse;shape=doubleEllipse;margin=3;whiteSpace=wrap;html=1;align=center;" vertex="1" parent="1">
          <mxGeometry x="-1110" y="230" width="100" height="40" as="geometry" />
        </mxCell>
        <mxCell id="HXT9-TqjmRSbrpR3KHuF-99" value="ieTime" style="ellipse;whiteSpace=wrap;html=1;align=center;dashed=1;" vertex="1" parent="1">
          <mxGeometry x="-980" y="240" width="100" height="40" as="geometry" />
        </mxCell>
        <mxCell id="HXT9-TqjmRSbrpR3KHuF-100" value="" style="edgeStyle=entityRelationEdgeStyle;fontSize=12;html=1;endArrow=ERmandOne;rounded=0;entryX=1;entryY=0.5;entryDx=0;entryDy=0;exitX=0;exitY=0.5;exitDx=0;exitDy=0;" edge="1" parent="1" source="HXT9-TqjmRSbrpR3KHuF-101" target="HXT9-TqjmRSbrpR3KHuF-97">
          <mxGeometry width="100" height="100" relative="1" as="geometry">
            <mxPoint x="-1270" y="390" as="sourcePoint" />
            <mxPoint x="-1130" y="260" as="targetPoint" />
          </mxGeometry>
        </mxCell>
        <mxCell id="HXT9-TqjmRSbrpR3KHuF-101" value="linked to" style="shape=rhombus;perimeter=rhombusPerimeter;whiteSpace=wrap;html=1;align=center;" vertex="1" parent="1">
          <mxGeometry x="-970" y="370" width="120" height="60" as="geometry" />
        </mxCell>
        <mxCell id="HXT9-TqjmRSbrpR3KHuF-102" value="" style="edgeStyle=entityRelationEdgeStyle;fontSize=12;html=1;endArrow=ERzeroToMany;endFill=1;rounded=0;entryX=0;entryY=0.5;entryDx=0;entryDy=0;exitX=1;exitY=0.5;exitDx=0;exitDy=0;" edge="1" parent="1" source="HXT9-TqjmRSbrpR3KHuF-101" target="HXT9-TqjmRSbrpR3KHuF-3">
          <mxGeometry width="100" height="100" relative="1" as="geometry">
            <mxPoint x="-1230" y="360" as="sourcePoint" />
            <mxPoint x="-1130" y="260" as="targetPoint" />
          </mxGeometry>
        </mxCell>
        <mxCell id="HXT9-TqjmRSbrpR3KHuF-103" value="messageType" style="ellipse;whiteSpace=wrap;html=1;align=center;" vertex="1" parent="1">
          <mxGeometry x="1830" y="430" width="100" height="40" as="geometry" />
        </mxCell>
        <mxCell id="HXT9-TqjmRSbrpR3KHuF-104" value="messageID" style="ellipse;whiteSpace=wrap;html=1;align=center;fontStyle=4;" vertex="1" parent="1">
          <mxGeometry x="1650" y="290" width="100" height="40" as="geometry" />
        </mxCell>
        <mxCell id="HXT9-TqjmRSbrpR3KHuF-105" value="content" style="ellipse;whiteSpace=wrap;html=1;align=center;" vertex="1" parent="1">
          <mxGeometry x="1780" y="310" width="100" height="40" as="geometry" />
        </mxCell>
        <mxCell id="HXT9-TqjmRSbrpR3KHuF-106" value="" style="endArrow=none;html=1;rounded=0;exitX=0.5;exitY=1;exitDx=0;exitDy=0;entryX=0.25;entryY=0;entryDx=0;entryDy=0;" edge="1" parent="1" source="HXT9-TqjmRSbrpR3KHuF-104" target="HXT9-TqjmRSbrpR3KHuF-109">
          <mxGeometry relative="1" as="geometry">
            <mxPoint x="1170" y="570" as="sourcePoint" />
            <mxPoint x="1280" y="620" as="targetPoint" />
          </mxGeometry>
        </mxCell>
        <mxCell id="HXT9-TqjmRSbrpR3KHuF-107" value="" style="endArrow=none;html=1;rounded=0;exitX=0;exitY=0.5;exitDx=0;exitDy=0;entryX=1;entryY=0.5;entryDx=0;entryDy=0;" edge="1" parent="1" source="HXT9-TqjmRSbrpR3KHuF-103" target="HXT9-TqjmRSbrpR3KHuF-109">
          <mxGeometry relative="1" as="geometry">
            <mxPoint x="1310" y="560" as="sourcePoint" />
            <mxPoint x="1322" y="620" as="targetPoint" />
          </mxGeometry>
        </mxCell>
        <mxCell id="HXT9-TqjmRSbrpR3KHuF-108" value="" style="endArrow=none;html=1;rounded=0;exitX=0.5;exitY=1;exitDx=0;exitDy=0;" edge="1" parent="1" source="HXT9-TqjmRSbrpR3KHuF-105" target="HXT9-TqjmRSbrpR3KHuF-109">
          <mxGeometry relative="1" as="geometry">
            <mxPoint x="1405" y="540" as="sourcePoint" />
            <mxPoint x="1355" y="620" as="targetPoint" />
          </mxGeometry>
        </mxCell>
        <mxCell id="HXT9-TqjmRSbrpR3KHuF-109" value="Message" style="rounded=1;arcSize=10;whiteSpace=wrap;html=1;align=center;" vertex="1" parent="1">
          <mxGeometry x="1660" y="410" width="100" height="40" as="geometry" />
        </mxCell>
        <mxCell id="HXT9-TqjmRSbrpR3KHuF-110" value=" sends" style="shape=rhombus;perimeter=rhombusPerimeter;whiteSpace=wrap;html=1;align=center;" vertex="1" parent="1">
          <mxGeometry x="1430" y="360" width="120" height="60" as="geometry" />
        </mxCell>
        <mxCell id="HXT9-TqjmRSbrpR3KHuF-111" value="" style="edgeStyle=entityRelationEdgeStyle;fontSize=12;html=1;endArrow=ERzeroToMany;endFill=1;rounded=0;entryX=1;entryY=0.75;entryDx=0;entryDy=0;exitX=0.5;exitY=0;exitDx=0;exitDy=0;" edge="1" parent="1" source="HXT9-TqjmRSbrpR3KHuF-110" target="HXT9-TqjmRSbrpR3KHuF-48">
          <mxGeometry width="100" height="100" relative="1" as="geometry">
            <mxPoint x="920" y="660" as="sourcePoint" />
            <mxPoint x="1020" y="560" as="targetPoint" />
          </mxGeometry>
        </mxCell>
        <mxCell id="HXT9-TqjmRSbrpR3KHuF-112" value="" style="edgeStyle=entityRelationEdgeStyle;fontSize=12;html=1;endArrow=ERmandOne;rounded=0;entryX=1;entryY=0.5;entryDx=0;entryDy=0;exitX=0;exitY=0.25;exitDx=0;exitDy=0;" edge="1" parent="1" source="HXT9-TqjmRSbrpR3KHuF-109" target="HXT9-TqjmRSbrpR3KHuF-110">
          <mxGeometry width="100" height="100" relative="1" as="geometry">
            <mxPoint x="920" y="660" as="sourcePoint" />
            <mxPoint x="1020" y="560" as="targetPoint" />
            <Array as="points">
              <mxPoint x="1570" y="440" />
            </Array>
          </mxGeometry>
        </mxCell>
        <mxCell id="HXT9-TqjmRSbrpR3KHuF-113" value="Relationship" style="shape=rhombus;perimeter=rhombusPerimeter;whiteSpace=wrap;html=1;align=center;" vertex="1" parent="1">
          <mxGeometry x="990" y="320" width="120" height="60" as="geometry" />
        </mxCell>
        <mxCell id="HXT9-TqjmRSbrpR3KHuF-114" value="" style="edgeStyle=entityRelationEdgeStyle;fontSize=12;html=1;endArrow=ERzeroToOne;endFill=1;rounded=0;entryX=0;entryY=0.25;entryDx=0;entryDy=0;exitX=1;exitY=0.5;exitDx=0;exitDy=0;" edge="1" parent="1" source="HXT9-TqjmRSbrpR3KHuF-113" target="HXT9-TqjmRSbrpR3KHuF-48">
          <mxGeometry width="100" height="100" relative="1" as="geometry">
            <mxPoint x="970" y="450" as="sourcePoint" />
            <mxPoint x="1070" y="350" as="targetPoint" />
          </mxGeometry>
        </mxCell>
        <mxCell id="HXT9-TqjmRSbrpR3KHuF-115" value="" style="edgeStyle=entityRelationEdgeStyle;fontSize=12;html=1;endArrow=ERmandOne;rounded=0;entryX=1;entryY=0.5;entryDx=0;entryDy=0;exitX=0;exitY=0.5;exitDx=0;exitDy=0;" edge="1" parent="1" source="HXT9-TqjmRSbrpR3KHuF-113" target="HXT9-TqjmRSbrpR3KHuF-26">
          <mxGeometry width="100" height="100" relative="1" as="geometry">
            <mxPoint x="970" y="450" as="sourcePoint" />
            <mxPoint x="1070" y="350" as="targetPoint" />
          </mxGeometry>
        </mxCell>
        <mxCell id="HXT9-TqjmRSbrpR3KHuF-116" style="edgeStyle=orthogonalEdgeStyle;rounded=0;orthogonalLoop=1;jettySize=auto;html=1;exitX=0.5;exitY=1;exitDx=0;exitDy=0;" edge="1" parent="1" source="HXT9-TqjmRSbrpR3KHuF-89" target="HXT9-TqjmRSbrpR3KHuF-89">
          <mxGeometry relative="1" as="geometry" />
        </mxCell>
        <mxCell id="HXT9-TqjmRSbrpR3KHuF-117" value="adminID" style="ellipse;whiteSpace=wrap;html=1;align=center;fontStyle=4;" vertex="1" parent="1">
          <mxGeometry x="1580" y="560" width="100" height="40" as="geometry" />
        </mxCell>
        <mxCell id="HXT9-TqjmRSbrpR3KHuF-118" value="" style="endArrow=none;html=1;rounded=0;exitX=0.5;exitY=0;exitDx=0;exitDy=0;entryX=0.25;entryY=1;entryDx=0;entryDy=0;exitPerimeter=0;" edge="1" parent="1" source="HXT9-TqjmRSbrpR3KHuF-117" target="HXT9-TqjmRSbrpR3KHuF-120">
          <mxGeometry relative="1" as="geometry">
            <mxPoint x="760" y="695" as="sourcePoint" />
            <mxPoint x="870" y="745" as="targetPoint" />
          </mxGeometry>
        </mxCell>
        <mxCell id="HXT9-TqjmRSbrpR3KHuF-119" value="" style="endArrow=none;html=1;rounded=0;entryX=1;entryY=0.5;entryDx=0;entryDy=0;" edge="1" parent="1" source="HXT9-TqjmRSbrpR3KHuF-121" target="HXT9-TqjmRSbrpR3KHuF-120">
          <mxGeometry relative="1" as="geometry">
            <mxPoint x="1540" y="605" as="sourcePoint" />
            <mxPoint x="912" y="745" as="targetPoint" />
          </mxGeometry>
        </mxCell>
        <mxCell id="HXT9-TqjmRSbrpR3KHuF-120" value="Admin" style="rounded=1;arcSize=10;whiteSpace=wrap;html=1;align=center;" vertex="1" parent="1">
          <mxGeometry x="1530" y="490" width="100" height="40" as="geometry" />
        </mxCell>
        <mxCell id="HXT9-TqjmRSbrpR3KHuF-121" value="permissions" style="ellipse;shape=doubleEllipse;margin=3;whiteSpace=wrap;html=1;align=center;" vertex="1" parent="1">
          <mxGeometry x="1660" y="500" width="100" height="40" as="geometry" />
        </mxCell>
        <mxCell id="HXT9-TqjmRSbrpR3KHuF-122" value="salesStaffID" style="ellipse;whiteSpace=wrap;html=1;align=center;fontStyle=4;" vertex="1" parent="1">
          <mxGeometry x="1400" y="640" width="100" height="40" as="geometry" />
        </mxCell>
        <mxCell id="HXT9-TqjmRSbrpR3KHuF-123" value="" style="endArrow=none;html=1;rounded=0;exitX=0.5;exitY=0;exitDx=0;exitDy=0;entryX=0.25;entryY=1;entryDx=0;entryDy=0;exitPerimeter=0;" edge="1" parent="1" source="HXT9-TqjmRSbrpR3KHuF-122" target="HXT9-TqjmRSbrpR3KHuF-125">
          <mxGeometry relative="1" as="geometry">
            <mxPoint x="545" y="765" as="sourcePoint" />
            <mxPoint x="655" y="815" as="targetPoint" />
          </mxGeometry>
        </mxCell>
        <mxCell id="HXT9-TqjmRSbrpR3KHuF-124" value="" style="endArrow=none;html=1;rounded=0;entryX=1;entryY=0.5;entryDx=0;entryDy=0;" edge="1" parent="1" source="HXT9-TqjmRSbrpR3KHuF-126" target="HXT9-TqjmRSbrpR3KHuF-125">
          <mxGeometry relative="1" as="geometry">
            <mxPoint x="1325" y="675" as="sourcePoint" />
            <mxPoint x="697" y="815" as="targetPoint" />
          </mxGeometry>
        </mxCell>
        <mxCell id="HXT9-TqjmRSbrpR3KHuF-125" value="SalesStaff" style="rounded=1;arcSize=10;whiteSpace=wrap;html=1;align=center;" vertex="1" parent="1">
          <mxGeometry x="1350" y="530" width="100" height="40" as="geometry" />
        </mxCell>
        <mxCell id="HXT9-TqjmRSbrpR3KHuF-126" value="permissions" style="ellipse;shape=doubleEllipse;margin=3;whiteSpace=wrap;html=1;align=center;" vertex="1" parent="1">
          <mxGeometry x="1530" y="640" width="100" height="40" as="geometry" />
        </mxCell>
        <mxCell id="HXT9-TqjmRSbrpR3KHuF-127" value="salesTarget" style="ellipse;whiteSpace=wrap;html=1;align=center;" vertex="1" parent="1">
          <mxGeometry x="1275" y="630" width="100" height="40" as="geometry" />
        </mxCell>
        <mxCell id="HXT9-TqjmRSbrpR3KHuF-128" value="" style="endArrow=none;html=1;rounded=0;exitX=0.5;exitY=0;exitDx=0;exitDy=0;entryX=0;entryY=1;entryDx=0;entryDy=0;" edge="1" parent="1" source="HXT9-TqjmRSbrpR3KHuF-127" target="HXT9-TqjmRSbrpR3KHuF-125">
          <mxGeometry relative="1" as="geometry">
            <mxPoint x="455" y="760" as="sourcePoint" />
            <mxPoint x="985" y="680" as="targetPoint" />
          </mxGeometry>
        </mxCell>
        <mxCell id="HXT9-TqjmRSbrpR3KHuF-129" value="is" style="shape=rhombus;perimeter=rhombusPerimeter;whiteSpace=wrap;html=1;align=center;" vertex="1" parent="1">
          <mxGeometry x="1155" y="420" width="120" height="60" as="geometry" />
        </mxCell>
        <mxCell id="HXT9-TqjmRSbrpR3KHuF-130" value="accountantID" style="ellipse;whiteSpace=wrap;html=1;align=center;fontStyle=4;" vertex="1" parent="1">
          <mxGeometry x="890" y="460" width="100" height="40" as="geometry" />
        </mxCell>
        <mxCell id="HXT9-TqjmRSbrpR3KHuF-131" value="" style="endArrow=none;html=1;rounded=0;exitX=0.5;exitY=0;exitDx=0;exitDy=0;entryX=0.25;entryY=1;entryDx=0;entryDy=0;exitPerimeter=0;" edge="1" parent="1" source="HXT9-TqjmRSbrpR3KHuF-130" target="HXT9-TqjmRSbrpR3KHuF-133">
          <mxGeometry relative="1" as="geometry">
            <mxPoint x="335" y="855" as="sourcePoint" />
            <mxPoint x="445" y="905" as="targetPoint" />
          </mxGeometry>
        </mxCell>
        <mxCell id="HXT9-TqjmRSbrpR3KHuF-132" value="" style="endArrow=none;html=1;rounded=0;entryX=1;entryY=0.5;entryDx=0;entryDy=0;" edge="1" parent="1" source="HXT9-TqjmRSbrpR3KHuF-134" target="HXT9-TqjmRSbrpR3KHuF-133">
          <mxGeometry relative="1" as="geometry">
            <mxPoint x="1115" y="765" as="sourcePoint" />
            <mxPoint x="487" y="905" as="targetPoint" />
          </mxGeometry>
        </mxCell>
        <mxCell id="HXT9-TqjmRSbrpR3KHuF-133" value="Accountant" style="rounded=1;arcSize=10;whiteSpace=wrap;html=1;align=center;" vertex="1" parent="1">
          <mxGeometry x="970" y="405" width="100" height="40" as="geometry" />
        </mxCell>
        <mxCell id="HXT9-TqjmRSbrpR3KHuF-134" value="permissions" style="ellipse;shape=doubleEllipse;margin=3;whiteSpace=wrap;html=1;align=center;" vertex="1" parent="1">
          <mxGeometry x="980" y="520" width="100" height="40" as="geometry" />
        </mxCell>
        <mxCell id="HXT9-TqjmRSbrpR3KHuF-135" value="warehouseStaffID" style="ellipse;whiteSpace=wrap;html=1;align=center;fontStyle=4;" vertex="1" parent="1">
          <mxGeometry x="1030" y="670" width="100" height="40" as="geometry" />
        </mxCell>
        <mxCell id="HXT9-TqjmRSbrpR3KHuF-136" value="" style="endArrow=none;html=1;rounded=0;exitX=0.5;exitY=0;exitDx=0;exitDy=0;entryX=0.25;entryY=1;entryDx=0;entryDy=0;exitPerimeter=0;" edge="1" parent="1" source="HXT9-TqjmRSbrpR3KHuF-135" target="HXT9-TqjmRSbrpR3KHuF-138">
          <mxGeometry relative="1" as="geometry">
            <mxPoint x="775" y="995" as="sourcePoint" />
            <mxPoint x="885" y="1045" as="targetPoint" />
          </mxGeometry>
        </mxCell>
        <mxCell id="HXT9-TqjmRSbrpR3KHuF-137" value="" style="endArrow=none;html=1;rounded=0;entryX=1;entryY=0.5;entryDx=0;entryDy=0;" edge="1" parent="1" source="HXT9-TqjmRSbrpR3KHuF-139" target="HXT9-TqjmRSbrpR3KHuF-138">
          <mxGeometry relative="1" as="geometry">
            <mxPoint x="1555" y="905" as="sourcePoint" />
            <mxPoint x="927" y="1045" as="targetPoint" />
          </mxGeometry>
        </mxCell>
        <mxCell id="HXT9-TqjmRSbrpR3KHuF-138" value="WarehouseStaff" style="rounded=1;arcSize=10;whiteSpace=wrap;html=1;align=center;" vertex="1" parent="1">
          <mxGeometry x="1080" y="570" width="100" height="40" as="geometry" />
        </mxCell>
        <mxCell id="HXT9-TqjmRSbrpR3KHuF-139" value="permissions" style="ellipse;shape=doubleEllipse;margin=3;whiteSpace=wrap;html=1;align=center;" vertex="1" parent="1">
          <mxGeometry x="1160" y="680" width="100" height="40" as="geometry" />
        </mxCell>
        <mxCell id="HXT9-TqjmRSbrpR3KHuF-140" value="" style="edgeStyle=entityRelationEdgeStyle;fontSize=12;html=1;endArrow=ERzeroToOne;endFill=1;rounded=0;entryX=0;entryY=0.75;entryDx=0;entryDy=0;exitX=0.5;exitY=0;exitDx=0;exitDy=0;" edge="1" parent="1" source="HXT9-TqjmRSbrpR3KHuF-129" target="HXT9-TqjmRSbrpR3KHuF-48">
          <mxGeometry width="100" height="100" relative="1" as="geometry">
            <mxPoint x="1275" y="430" as="sourcePoint" />
            <mxPoint x="1240" y="380" as="targetPoint" />
            <Array as="points">
              <mxPoint x="1245" y="400" />
            </Array>
          </mxGeometry>
        </mxCell>
        <mxCell id="HXT9-TqjmRSbrpR3KHuF-141" value="" style="edgeStyle=entityRelationEdgeStyle;fontSize=12;html=1;endArrow=ERmandOne;rounded=0;exitX=0;exitY=0;exitDx=0;exitDy=0;entryX=1;entryY=0.5;entryDx=0;entryDy=0;" edge="1" parent="1" source="HXT9-TqjmRSbrpR3KHuF-129" target="HXT9-TqjmRSbrpR3KHuF-133">
          <mxGeometry width="100" height="100" relative="1" as="geometry">
            <mxPoint x="1200" y="830" as="sourcePoint" />
            <mxPoint x="1295" y="740" as="targetPoint" />
          </mxGeometry>
        </mxCell>
        <mxCell id="HXT9-TqjmRSbrpR3KHuF-142" value="" style="edgeStyle=entityRelationEdgeStyle;fontSize=12;html=1;endArrow=ERmandOne;rounded=0;exitX=1;exitY=0.5;exitDx=0;exitDy=0;entryX=0;entryY=0.25;entryDx=0;entryDy=0;" edge="1" parent="1" source="HXT9-TqjmRSbrpR3KHuF-129" target="HXT9-TqjmRSbrpR3KHuF-120">
          <mxGeometry width="100" height="100" relative="1" as="geometry">
            <mxPoint x="1330" y="545" as="sourcePoint" />
            <mxPoint x="1425" y="455" as="targetPoint" />
          </mxGeometry>
        </mxCell>
        <mxCell id="HXT9-TqjmRSbrpR3KHuF-143" value="" style="edgeStyle=entityRelationEdgeStyle;fontSize=12;html=1;endArrow=ERmandOne;rounded=0;exitX=1;exitY=1;exitDx=0;exitDy=0;entryX=0;entryY=0.5;entryDx=0;entryDy=0;" edge="1" parent="1" source="HXT9-TqjmRSbrpR3KHuF-129" target="HXT9-TqjmRSbrpR3KHuF-125">
          <mxGeometry width="100" height="100" relative="1" as="geometry">
            <mxPoint x="1250" y="485" as="sourcePoint" />
            <mxPoint x="1505" y="535" as="targetPoint" />
          </mxGeometry>
        </mxCell>
        <mxCell id="HXT9-TqjmRSbrpR3KHuF-144" value="" style="edgeStyle=entityRelationEdgeStyle;fontSize=12;html=1;endArrow=ERmandOne;rounded=0;exitX=0;exitY=1;exitDx=0;exitDy=0;" edge="1" parent="1" source="HXT9-TqjmRSbrpR3KHuF-129" target="HXT9-TqjmRSbrpR3KHuF-138">
          <mxGeometry width="100" height="100" relative="1" as="geometry">
            <mxPoint x="840" y="590" as="sourcePoint" />
            <mxPoint x="1095" y="640" as="targetPoint" />
          </mxGeometry>
        </mxCell>
        <mxCell id="HOwHB1ZTKBwzOBAcBMfd-1" value="Admin" style="swimlane;childLayout=stackLayout;horizontal=1;startSize=50;horizontalStack=0;rounded=1;fontSize=14;fontStyle=0;strokeWidth=2;resizeParent=0;resizeLast=1;shadow=0;dashed=0;align=center;arcSize=4;whiteSpace=wrap;html=1;" vertex="1" parent="1">
          <mxGeometry x="-30" y="960" width="160" height="120" as="geometry" />
        </mxCell>
        <mxCell id="HOwHB1ZTKBwzOBAcBMfd-2" value="+adminID&lt;br&gt;+userID&lt;br&gt;+permissions" style="align=left;strokeColor=none;fillColor=none;spacingLeft=4;fontSize=12;verticalAlign=top;resizable=0;rotatable=0;part=1;html=1;" vertex="1" parent="HOwHB1ZTKBwzOBAcBMfd-1">
          <mxGeometry y="50" width="160" height="70" as="geometry" />
        </mxCell>
        <mxCell id="HOwHB1ZTKBwzOBAcBMfd-3" value="SalesStaff" style="swimlane;childLayout=stackLayout;horizontal=1;startSize=50;horizontalStack=0;rounded=1;fontSize=14;fontStyle=0;strokeWidth=2;resizeParent=0;resizeLast=1;shadow=0;dashed=0;align=center;arcSize=4;whiteSpace=wrap;html=1;" vertex="1" parent="1">
          <mxGeometry x="-760" y="910" width="160" height="120" as="geometry" />
        </mxCell>
        <mxCell id="HOwHB1ZTKBwzOBAcBMfd-4" value="+salesStaffID&lt;div&gt;+userID&lt;br&gt;+salesTarget&lt;/div&gt;&lt;div&gt;+permissions&lt;/div&gt;" style="align=left;strokeColor=none;fillColor=none;spacingLeft=4;fontSize=12;verticalAlign=top;resizable=0;rotatable=0;part=1;html=1;" vertex="1" parent="HOwHB1ZTKBwzOBAcBMfd-3">
          <mxGeometry y="50" width="160" height="70" as="geometry" />
        </mxCell>
        <mxCell id="HOwHB1ZTKBwzOBAcBMfd-5" value="WarehouseStaff" style="swimlane;childLayout=stackLayout;horizontal=1;startSize=50;horizontalStack=0;rounded=1;fontSize=14;fontStyle=0;strokeWidth=2;resizeParent=0;resizeLast=1;shadow=0;dashed=0;align=center;arcSize=4;whiteSpace=wrap;html=1;" vertex="1" parent="1">
          <mxGeometry x="-860" y="1060" width="160" height="120" as="geometry" />
        </mxCell>
        <mxCell id="HOwHB1ZTKBwzOBAcBMfd-6" value="+warehouseStaffID&lt;br&gt;+userID&lt;br&gt;+permissions" style="align=left;strokeColor=none;fillColor=none;spacingLeft=4;fontSize=12;verticalAlign=top;resizable=0;rotatable=0;part=1;html=1;" vertex="1" parent="HOwHB1ZTKBwzOBAcBMfd-5">
          <mxGeometry y="50" width="160" height="70" as="geometry" />
        </mxCell>
        <mxCell id="HOwHB1ZTKBwzOBAcBMfd-7" value="&lt;h4&gt;&lt;strong&gt;Accountant&lt;/strong&gt;&lt;/h4&gt;" style="swimlane;childLayout=stackLayout;horizontal=1;startSize=50;horizontalStack=0;rounded=1;fontSize=14;fontStyle=0;strokeWidth=2;resizeParent=0;resizeLast=1;shadow=0;dashed=0;align=center;arcSize=4;whiteSpace=wrap;html=1;" vertex="1" parent="1">
          <mxGeometry x="-850" y="1232.5" width="160" height="120" as="geometry" />
        </mxCell>
        <mxCell id="HOwHB1ZTKBwzOBAcBMfd-8" value="+accountantID&lt;br&gt;+userID&lt;br&gt;+permissions" style="align=left;strokeColor=none;fillColor=none;spacingLeft=4;fontSize=12;verticalAlign=top;resizable=0;rotatable=0;part=1;html=1;" vertex="1" parent="HOwHB1ZTKBwzOBAcBMfd-7">
          <mxGeometry y="50" width="160" height="70" as="geometry" />
        </mxCell>
        <mxCell id="HOwHB1ZTKBwzOBAcBMfd-9" value="Customer" style="swimlane;childLayout=stackLayout;horizontal=1;startSize=50;horizontalStack=0;rounded=1;fontSize=14;fontStyle=0;strokeWidth=2;resizeParent=0;resizeLast=1;shadow=0;dashed=0;align=center;arcSize=4;whiteSpace=wrap;html=1;" vertex="1" parent="1">
          <mxGeometry x="-860" y="1400" width="160" height="150" as="geometry" />
        </mxCell>
        <mxCell id="HOwHB1ZTKBwzOBAcBMfd-10" value="+customerID&lt;br&gt;+userID&lt;br&gt;+name&lt;div&gt;+email&lt;/div&gt;&lt;div&gt;+phone&lt;/div&gt;&lt;div&gt;+address&lt;/div&gt;" style="align=left;strokeColor=none;fillColor=none;spacingLeft=4;fontSize=12;verticalAlign=top;resizable=0;rotatable=0;part=1;html=1;" vertex="1" parent="HOwHB1ZTKBwzOBAcBMfd-9">
          <mxGeometry y="50" width="160" height="100" as="geometry" />
        </mxCell>
        <mxCell id="HOwHB1ZTKBwzOBAcBMfd-11" value="User" style="swimlane;childLayout=stackLayout;horizontal=1;startSize=50;horizontalStack=0;rounded=1;fontSize=14;fontStyle=0;strokeWidth=2;resizeParent=0;resizeLast=1;shadow=0;dashed=0;align=center;arcSize=4;whiteSpace=wrap;html=1;" vertex="1" parent="1">
          <mxGeometry x="-430" y="1100" width="160" height="150" as="geometry" />
        </mxCell>
        <mxCell id="HOwHB1ZTKBwzOBAcBMfd-12" value="+userID&lt;br&gt;+userName&lt;br&gt;+password&lt;div&gt;+emai&lt;/div&gt;&lt;div&gt;+phone&lt;/div&gt;&lt;div&gt;+roleID&lt;/div&gt;" style="align=left;strokeColor=none;fillColor=none;spacingLeft=4;fontSize=12;verticalAlign=top;resizable=0;rotatable=0;part=1;html=1;" vertex="1" parent="HOwHB1ZTKBwzOBAcBMfd-11">
          <mxGeometry y="50" width="160" height="100" as="geometry" />
        </mxCell>
        <mxCell id="HOwHB1ZTKBwzOBAcBMfd-13" value="UserRole" style="swimlane;childLayout=stackLayout;horizontal=1;startSize=50;horizontalStack=0;rounded=1;fontSize=14;fontStyle=0;strokeWidth=2;resizeParent=0;resizeLast=1;shadow=0;dashed=0;align=center;arcSize=4;whiteSpace=wrap;html=1;" vertex="1" parent="1">
          <mxGeometry x="-10" y="1150" width="160" height="120" as="geometry" />
        </mxCell>
        <mxCell id="HOwHB1ZTKBwzOBAcBMfd-14" value="+roleID&lt;br&gt;+roleName&lt;br&gt;+permissions" style="align=left;strokeColor=none;fillColor=none;spacingLeft=4;fontSize=12;verticalAlign=top;resizable=0;rotatable=0;part=1;html=1;" vertex="1" parent="HOwHB1ZTKBwzOBAcBMfd-13">
          <mxGeometry y="50" width="160" height="70" as="geometry" />
        </mxCell>
        <mxCell id="HOwHB1ZTKBwzOBAcBMfd-15" value="Order" style="swimlane;childLayout=stackLayout;horizontal=1;startSize=50;horizontalStack=0;rounded=1;fontSize=14;fontStyle=0;strokeWidth=2;resizeParent=0;resizeLast=1;shadow=0;dashed=0;align=center;arcSize=4;whiteSpace=wrap;html=1;" vertex="1" parent="1">
          <mxGeometry x="-470" y="1470" width="160" height="160" as="geometry" />
        </mxCell>
        <mxCell id="HOwHB1ZTKBwzOBAcBMfd-16" value="+orderID&lt;br&gt;+orderTime&lt;br&gt;+status&lt;div&gt;+totalAmount&lt;/div&gt;&lt;div&gt;+address&lt;/div&gt;&lt;div&gt;+customerID&lt;/div&gt;&lt;div&gt;+products&lt;/div&gt;" style="align=left;strokeColor=none;fillColor=none;spacingLeft=4;fontSize=12;verticalAlign=top;resizable=0;rotatable=0;part=1;html=1;" vertex="1" parent="HOwHB1ZTKBwzOBAcBMfd-15">
          <mxGeometry y="50" width="160" height="110" as="geometry" />
        </mxCell>
        <mxCell id="HOwHB1ZTKBwzOBAcBMfd-17" value="Product" style="swimlane;childLayout=stackLayout;horizontal=1;startSize=50;horizontalStack=0;rounded=1;fontSize=14;fontStyle=0;strokeWidth=2;resizeParent=0;resizeLast=1;shadow=0;dashed=0;align=center;arcSize=4;whiteSpace=wrap;html=1;" vertex="1" parent="1">
          <mxGeometry x="-150" y="1550" width="160" height="150" as="geometry" />
        </mxCell>
        <mxCell id="HOwHB1ZTKBwzOBAcBMfd-18" value="+productID&lt;br&gt;+productName&lt;br&gt;+price&lt;div&gt;+quantity&lt;/div&gt;&lt;div&gt;+description&lt;/div&gt;&lt;div&gt;+promotionID&lt;/div&gt;" style="align=left;strokeColor=none;fillColor=none;spacingLeft=4;fontSize=12;verticalAlign=top;resizable=0;rotatable=0;part=1;html=1;" vertex="1" parent="HOwHB1ZTKBwzOBAcBMfd-17">
          <mxGeometry y="50" width="160" height="100" as="geometry" />
        </mxCell>
        <mxCell id="HOwHB1ZTKBwzOBAcBMfd-19" value="Promotion" style="swimlane;childLayout=stackLayout;horizontal=1;startSize=50;horizontalStack=0;rounded=1;fontSize=14;fontStyle=0;strokeWidth=2;resizeParent=0;resizeLast=1;shadow=0;dashed=0;align=center;arcSize=4;whiteSpace=wrap;html=1;" vertex="1" parent="1">
          <mxGeometry x="-470" y="1705" width="160" height="135" as="geometry" />
        </mxCell>
        <mxCell id="HOwHB1ZTKBwzOBAcBMfd-20" value="+promotionID&lt;br&gt;+discount&lt;br&gt;+products&lt;div&gt;+startTime&lt;/div&gt;&lt;div&gt;+endTime&lt;/div&gt;" style="align=left;strokeColor=none;fillColor=none;spacingLeft=4;fontSize=12;verticalAlign=top;resizable=0;rotatable=0;part=1;html=1;" vertex="1" parent="HOwHB1ZTKBwzOBAcBMfd-19">
          <mxGeometry y="50" width="160" height="85" as="geometry" />
        </mxCell>
        <mxCell id="HOwHB1ZTKBwzOBAcBMfd-21" value="Invoice" style="swimlane;childLayout=stackLayout;horizontal=1;startSize=50;horizontalStack=0;rounded=1;fontSize=14;fontStyle=0;strokeWidth=2;resizeParent=0;resizeLast=1;shadow=0;dashed=0;align=center;arcSize=4;whiteSpace=wrap;html=1;" vertex="1" parent="1">
          <mxGeometry x="-880" y="1650" width="160" height="135" as="geometry" />
        </mxCell>
        <mxCell id="HOwHB1ZTKBwzOBAcBMfd-22" value="+invoiceID&lt;br&gt;+orderID&lt;br&gt;+invoiceTime&lt;div&gt;+totalAmount&lt;/div&gt;&lt;div&gt;+paymentStatus&lt;/div&gt;" style="align=left;strokeColor=none;fillColor=none;spacingLeft=4;fontSize=12;verticalAlign=top;resizable=0;rotatable=0;part=1;html=1;" vertex="1" parent="HOwHB1ZTKBwzOBAcBMfd-21">
          <mxGeometry y="50" width="160" height="85" as="geometry" />
        </mxCell>
        <mxCell id="HOwHB1ZTKBwzOBAcBMfd-23" value="Warehouse" style="swimlane;childLayout=stackLayout;horizontal=1;startSize=50;horizontalStack=0;rounded=1;fontSize=14;fontStyle=0;strokeWidth=2;resizeParent=0;resizeLast=1;shadow=0;dashed=0;align=center;arcSize=4;whiteSpace=wrap;html=1;" vertex="1" parent="1">
          <mxGeometry x="180" y="1610" width="160" height="110" as="geometry" />
        </mxCell>
        <mxCell id="HOwHB1ZTKBwzOBAcBMfd-24" value="+warehouseID&lt;div&gt;+location&lt;br&gt;+products&lt;div&gt;&lt;br&gt;&lt;/div&gt;&lt;/div&gt;" style="align=left;strokeColor=none;fillColor=none;spacingLeft=4;fontSize=12;verticalAlign=top;resizable=0;rotatable=0;part=1;html=1;" vertex="1" parent="HOwHB1ZTKBwzOBAcBMfd-23">
          <mxGeometry y="50" width="160" height="60" as="geometry" />
        </mxCell>
        <mxCell id="HOwHB1ZTKBwzOBAcBMfd-25" value="IEProduct" style="swimlane;childLayout=stackLayout;horizontal=1;startSize=50;horizontalStack=0;rounded=1;fontSize=14;fontStyle=0;strokeWidth=2;resizeParent=0;resizeLast=1;shadow=0;dashed=0;align=center;arcSize=4;whiteSpace=wrap;html=1;" vertex="1" parent="1">
          <mxGeometry x="-150" y="1760" width="160" height="110" as="geometry" />
        </mxCell>
        <mxCell id="HOwHB1ZTKBwzOBAcBMfd-26" value="+ieProductID&lt;div&gt;+products&lt;br&gt;+ieTime&lt;div&gt;&lt;br&gt;&lt;/div&gt;&lt;/div&gt;" style="align=left;strokeColor=none;fillColor=none;spacingLeft=4;fontSize=12;verticalAlign=top;resizable=0;rotatable=0;part=1;html=1;" vertex="1" parent="HOwHB1ZTKBwzOBAcBMfd-25">
          <mxGeometry y="50" width="160" height="60" as="geometry" />
        </mxCell>
        <mxCell id="HOwHB1ZTKBwzOBAcBMfd-27" value="Message" style="swimlane;childLayout=stackLayout;horizontal=1;startSize=50;horizontalStack=0;rounded=1;fontSize=14;fontStyle=0;strokeWidth=2;resizeParent=0;resizeLast=1;shadow=0;dashed=0;align=center;arcSize=4;whiteSpace=wrap;html=1;" vertex="1" parent="1">
          <mxGeometry x="-10" y="1325" width="160" height="120" as="geometry" />
        </mxCell>
        <mxCell id="HOwHB1ZTKBwzOBAcBMfd-28" value="+messageID&lt;div&gt;+userID&lt;br&gt;+messageType&lt;/div&gt;&lt;div&gt;+content&lt;br&gt;&lt;div&gt;&lt;br&gt;&lt;/div&gt;&lt;/div&gt;" style="align=left;strokeColor=none;fillColor=none;spacingLeft=4;fontSize=12;verticalAlign=top;resizable=0;rotatable=0;part=1;html=1;" vertex="1" parent="HOwHB1ZTKBwzOBAcBMfd-27">
          <mxGeometry y="50" width="160" height="70" as="geometry" />
        </mxCell>
        <mxCell id="HOwHB1ZTKBwzOBAcBMfd-29" value="" style="edgeStyle=entityRelationEdgeStyle;fontSize=12;html=1;endArrow=ERzeroToMany;startArrow=ERmandOne;rounded=0;entryX=1;entryY=0.25;entryDx=0;entryDy=0;exitX=0;exitY=0.5;exitDx=0;exitDy=0;" edge="1" parent="1" source="HOwHB1ZTKBwzOBAcBMfd-14" target="HOwHB1ZTKBwzOBAcBMfd-12">
          <mxGeometry width="100" height="100" relative="1" as="geometry">
            <mxPoint x="-248.72000000000003" y="1333.35" as="sourcePoint" />
            <mxPoint x="-240" y="1150" as="targetPoint" />
          </mxGeometry>
        </mxCell>
        <mxCell id="HOwHB1ZTKBwzOBAcBMfd-30" value="" style="edgeStyle=entityRelationEdgeStyle;fontSize=12;html=1;endArrow=ERzeroToOne;startArrow=ERmandOne;rounded=0;exitX=0;exitY=0;exitDx=0;exitDy=0;entryX=1;entryY=0.25;entryDx=0;entryDy=0;" edge="1" parent="1" source="HOwHB1ZTKBwzOBAcBMfd-2" target="HOwHB1ZTKBwzOBAcBMfd-11">
          <mxGeometry width="100" height="100" relative="1" as="geometry">
            <mxPoint x="-445" y="1220" as="sourcePoint" />
            <mxPoint x="-390" y="1100" as="targetPoint" />
          </mxGeometry>
        </mxCell>
        <mxCell id="HOwHB1ZTKBwzOBAcBMfd-31" value="" style="edgeStyle=entityRelationEdgeStyle;fontSize=12;html=1;endArrow=ERzeroToOne;startArrow=ERmandOne;rounded=0;exitX=1;exitY=0;exitDx=0;exitDy=0;entryX=0;entryY=0.25;entryDx=0;entryDy=0;" edge="1" parent="1" source="HOwHB1ZTKBwzOBAcBMfd-4" target="HOwHB1ZTKBwzOBAcBMfd-11">
          <mxGeometry width="100" height="100" relative="1" as="geometry">
            <mxPoint x="-736" y="1120" as="sourcePoint" />
            <mxPoint x="-730" y="1335" as="targetPoint" />
          </mxGeometry>
        </mxCell>
        <mxCell id="HOwHB1ZTKBwzOBAcBMfd-32" value="" style="edgeStyle=entityRelationEdgeStyle;fontSize=12;html=1;endArrow=ERzeroToOne;startArrow=ERmandOne;rounded=0;exitX=1;exitY=0.25;exitDx=0;exitDy=0;entryX=0;entryY=0.25;entryDx=0;entryDy=0;" edge="1" parent="1" source="HOwHB1ZTKBwzOBAcBMfd-5" target="HOwHB1ZTKBwzOBAcBMfd-12">
          <mxGeometry width="100" height="100" relative="1" as="geometry">
            <mxPoint x="-716" y="1275" as="sourcePoint" />
            <mxPoint x="-710" y="1490" as="targetPoint" />
          </mxGeometry>
        </mxCell>
        <mxCell id="HOwHB1ZTKBwzOBAcBMfd-33" value="" style="edgeStyle=entityRelationEdgeStyle;fontSize=12;html=1;endArrow=ERzeroToOne;startArrow=ERmandOne;rounded=0;exitX=0;exitY=0.5;exitDx=0;exitDy=0;entryX=1;entryY=0.75;entryDx=0;entryDy=0;" edge="1" parent="1" source="HOwHB1ZTKBwzOBAcBMfd-27" target="HOwHB1ZTKBwzOBAcBMfd-12">
          <mxGeometry width="100" height="100" relative="1" as="geometry">
            <mxPoint x="-150" y="1195" as="sourcePoint" />
            <mxPoint x="-144" y="1410" as="targetPoint" />
          </mxGeometry>
        </mxCell>
        <mxCell id="HOwHB1ZTKBwzOBAcBMfd-34" value="" style="edgeStyle=entityRelationEdgeStyle;fontSize=12;html=1;endArrow=ERzeroToOne;startArrow=ERmandOne;rounded=0;exitX=1;exitY=0.25;exitDx=0;exitDy=0;entryX=0;entryY=0.5;entryDx=0;entryDy=0;" edge="1" parent="1" source="HOwHB1ZTKBwzOBAcBMfd-8" target="HOwHB1ZTKBwzOBAcBMfd-12">
          <mxGeometry width="100" height="100" relative="1" as="geometry">
            <mxPoint x="-670" y="1441" as="sourcePoint" />
            <mxPoint x="-490" y="1350" as="targetPoint" />
          </mxGeometry>
        </mxCell>
        <mxCell id="HOwHB1ZTKBwzOBAcBMfd-35" value="" style="edgeStyle=entityRelationEdgeStyle;fontSize=12;html=1;endArrow=ERzeroToOne;startArrow=ERmandOne;rounded=0;exitX=1;exitY=0;exitDx=0;exitDy=0;entryX=0;entryY=0.75;entryDx=0;entryDy=0;" edge="1" parent="1" source="HOwHB1ZTKBwzOBAcBMfd-10" target="HOwHB1ZTKBwzOBAcBMfd-12">
          <mxGeometry width="100" height="100" relative="1" as="geometry">
            <mxPoint x="-660" y="1474" as="sourcePoint" />
            <mxPoint x="-460" y="1507" as="targetPoint" />
          </mxGeometry>
        </mxCell>
        <mxCell id="HOwHB1ZTKBwzOBAcBMfd-36" value="" style="edgeStyle=entityRelationEdgeStyle;fontSize=12;html=1;endArrow=ERzeroToOne;startArrow=ERmandOne;rounded=0;exitX=0;exitY=0.25;exitDx=0;exitDy=0;entryX=1;entryY=0.25;entryDx=0;entryDy=0;" edge="1" parent="1" source="HOwHB1ZTKBwzOBAcBMfd-16" target="HOwHB1ZTKBwzOBAcBMfd-10">
          <mxGeometry width="100" height="100" relative="1" as="geometry">
            <mxPoint x="-700" y="1629.5" as="sourcePoint" />
            <mxPoint x="-490" y="1537.5" as="targetPoint" />
          </mxGeometry>
        </mxCell>
        <mxCell id="HOwHB1ZTKBwzOBAcBMfd-37" value="" style="edgeStyle=entityRelationEdgeStyle;fontSize=12;html=1;endArrow=ERzeroToMany;endFill=1;startArrow=ERzeroToMany;rounded=0;entryX=0;entryY=0.25;entryDx=0;entryDy=0;exitX=1;exitY=0.25;exitDx=0;exitDy=0;" edge="1" parent="1" source="HOwHB1ZTKBwzOBAcBMfd-16" target="HOwHB1ZTKBwzOBAcBMfd-17">
          <mxGeometry width="100" height="100" relative="1" as="geometry">
            <mxPoint x="-440" y="1590" as="sourcePoint" />
            <mxPoint x="-340" y="1490" as="targetPoint" />
          </mxGeometry>
        </mxCell>
        <mxCell id="HOwHB1ZTKBwzOBAcBMfd-38" value="" style="edgeStyle=entityRelationEdgeStyle;fontSize=12;html=1;endArrow=ERmandOne;startArrow=ERmandOne;rounded=0;entryX=1;entryY=0.25;entryDx=0;entryDy=0;exitX=0;exitY=0.5;exitDx=0;exitDy=0;" edge="1" parent="1" source="HOwHB1ZTKBwzOBAcBMfd-16" target="HOwHB1ZTKBwzOBAcBMfd-22">
          <mxGeometry width="100" height="100" relative="1" as="geometry">
            <mxPoint x="-320" y="1730" as="sourcePoint" />
            <mxPoint x="-220" y="1630" as="targetPoint" />
          </mxGeometry>
        </mxCell>
        <mxCell id="HOwHB1ZTKBwzOBAcBMfd-39" value="" style="edgeStyle=entityRelationEdgeStyle;fontSize=12;html=1;endArrow=ERzeroToMany;startArrow=ERmandOne;rounded=0;entryX=1;entryY=0.5;entryDx=0;entryDy=0;exitX=0;exitY=0;exitDx=0;exitDy=0;" edge="1" parent="1" source="HOwHB1ZTKBwzOBAcBMfd-24" target="HOwHB1ZTKBwzOBAcBMfd-18">
          <mxGeometry width="100" height="100" relative="1" as="geometry">
            <mxPoint x="100" y="1820" as="sourcePoint" />
            <mxPoint x="200" y="1720" as="targetPoint" />
          </mxGeometry>
        </mxCell>
        <mxCell id="HOwHB1ZTKBwzOBAcBMfd-40" value="" style="edgeStyle=entityRelationEdgeStyle;fontSize=12;html=1;endArrow=ERzeroToMany;startArrow=ERmandOne;rounded=0;entryX=0;entryY=0.5;entryDx=0;entryDy=0;exitX=1;exitY=0;exitDx=0;exitDy=0;" edge="1" parent="1" source="HOwHB1ZTKBwzOBAcBMfd-26" target="HOwHB1ZTKBwzOBAcBMfd-24">
          <mxGeometry width="100" height="100" relative="1" as="geometry">
            <mxPoint x="425" y="1940" as="sourcePoint" />
            <mxPoint x="245" y="1790" as="targetPoint" />
          </mxGeometry>
        </mxCell>
        <mxCell id="HOwHB1ZTKBwzOBAcBMfd-41" value="" style="edgeStyle=entityRelationEdgeStyle;fontSize=12;html=1;endArrow=ERzeroToMany;startArrow=ERmandOne;rounded=0;entryX=1;entryY=0.25;entryDx=0;entryDy=0;exitX=0;exitY=0.5;exitDx=0;exitDy=0;" edge="1" parent="1" source="HOwHB1ZTKBwzOBAcBMfd-18" target="HOwHB1ZTKBwzOBAcBMfd-20">
          <mxGeometry width="100" height="100" relative="1" as="geometry">
            <mxPoint x="-170" y="1835" as="sourcePoint" />
            <mxPoint x="30" y="1690" as="targetPoint" />
          </mxGeometry>
        </mxCell>
      </root>
    </mxGraphModel>
  </diagram>
</mxfile>
